<svg width="391" height="114" viewBox="0 0 391 114" fill="none" xmlns="http://www.w3.org/2000/svg">
<path d="M57.632 54H49.856C49.248 54 48.8 53.872 48.512 53.616C48.256 53.328 48.128 52.88 48.128 52.272V28.704H41.072C40.464 28.704 40.016 28.576 39.728 28.32C39.472 28.032 39.344 27.584 39.344 26.976V21.168C39.344 20.56 39.472 20.128 39.728 19.872C40.016 19.584 40.464 19.44 41.072 19.44H66.416C67.024 19.44 67.456 19.584 67.712 19.872C68 20.128 68.144 20.56 68.144 21.168V26.976C68.144 27.584 68 28.032 67.712 28.32C67.456 28.576 67.024 28.704 66.416 28.704H59.36V52.272C59.36 52.88 59.216 53.328 58.928 53.616C58.672 53.872 58.24 54 57.632 54ZM86.78 54H79.34C78.732 54 78.284 53.872 77.996 53.616C77.74 53.328 77.612 52.88 77.612 52.272V21.168C77.612 20.56 77.74 20.128 77.996 19.872C78.284 19.584 78.732 19.44 79.34 19.44H86.78C87.388 19.44 87.82 19.584 88.076 19.872C88.364 20.128 88.508 20.56 88.508 21.168V31.584H96.524V21.168C96.524 20.56 96.652 20.128 96.908 19.872C97.196 19.584 97.644 19.44 98.252 19.44H105.692C106.3 19.44 106.732 19.584 106.988 19.872C107.276 20.128 107.42 20.56 107.42 21.168V52.272C107.42 52.88 107.276 53.328 106.988 53.616C106.732 53.872 106.3 54 105.692 54H98.252C97.644 54 97.196 53.872 96.908 53.616C96.652 53.328 96.524 52.88 96.524 52.272V41.616H88.508V52.272C88.508 52.88 88.364 53.328 88.076 53.616C87.82 53.872 87.388 54 86.78 54ZM142.834 54H120.562C119.954 54 119.506 53.872 119.218 53.616C118.962 53.328 118.834 52.88 118.834 52.272V21.168C118.834 20.56 118.962 20.128 119.218 19.872C119.506 19.584 119.954 19.44 120.562 19.44H142.834C143.442 19.44 143.874 19.584 144.13 19.872C144.418 20.128 144.562 20.56 144.562 21.168V26.784C144.562 27.392 144.418 27.84 144.13 28.128C143.874 28.384 143.442 28.512 142.834 28.512H129.586V32.208H138.946C139.554 32.208 139.986 32.352 140.242 32.64C140.53 32.896 140.674 33.328 140.674 33.936V39.072C140.674 39.68 140.53 40.128 140.242 40.416C139.986 40.672 139.554 40.8 138.946 40.8H129.586V44.928H142.834C143.442 44.928 143.874 45.072 144.13 45.36C144.418 45.616 144.562 46.048 144.562 46.656V52.272C144.562 52.88 144.418 53.328 144.13 53.616C143.874 53.872 143.442 54 142.834 54ZM187.968 47.28H163.92C163.376 47.28 162.992 46.992 162.768 46.416C162.576 45.808 162.64 45.248 162.96 44.736L173.712 27.12C174 26.672 174.32 26.32 174.672 26.064C175.024 25.776 175.456 25.632 175.968 25.632C176.48 25.632 176.896 25.776 177.216 26.064C177.568 26.32 177.888 26.672 178.176 27.12L188.928 44.736C189.248 45.248 189.296 45.808 189.072 46.416C188.848 46.992 188.48 47.28 187.968 47.28ZM224.16 54H216.384C215.776 54 215.328 53.872 215.04 53.616C214.784 53.328 214.656 52.88 214.656 52.272V28.704H207.6C206.992 28.704 206.544 28.576 206.256 28.32C206 28.032 205.872 27.584 205.872 26.976V21.168C205.872 20.56 206 20.128 206.256 19.872C206.544 19.584 206.992 19.44 207.6 19.44H232.944C233.552 19.44 233.984 19.584 234.24 19.872C234.528 20.128 234.672 20.56 234.672 21.168V26.976C234.672 27.584 234.528 28.032 234.24 28.32C233.984 28.576 233.552 28.704 232.944 28.704H225.888V52.272C225.888 52.88 225.744 53.328 225.456 53.616C225.2 53.872 224.768 54 224.16 54ZM253.308 54H245.868C245.26 54 244.812 53.872 244.524 53.616C244.268 53.328 244.14 52.88 244.14 52.272V21.168C244.14 20.56 244.268 20.128 244.524 19.872C244.812 19.584 245.26 19.44 245.868 19.44H253.308C253.916 19.44 254.348 19.584 254.604 19.872C254.892 20.128 255.036 20.56 255.036 21.168V31.584H263.052V21.168C263.052 20.56 263.18 20.128 263.436 19.872C263.724 19.584 264.172 19.44 264.78 19.44H272.22C272.828 19.44 273.26 19.584 273.516 19.872C273.804 20.128 273.948 20.56 273.948 21.168V52.272C273.948 52.88 273.804 53.328 273.516 53.616C273.26 53.872 272.828 54 272.22 54H264.78C264.172 54 263.724 53.872 263.436 53.616C263.18 53.328 263.052 52.88 263.052 52.272V41.616H255.036V52.272C255.036 52.88 254.892 53.328 254.604 53.616C254.348 53.872 253.916 54 253.308 54ZM309.362 54H287.09C286.482 54 286.034 53.872 285.746 53.616C285.49 53.328 285.362 52.88 285.362 52.272V21.168C285.362 20.56 285.49 20.128 285.746 19.872C286.034 19.584 286.482 19.44 287.09 19.44H309.362C309.97 19.44 310.402 19.584 310.658 19.872C310.946 20.128 311.09 20.56 311.09 21.168V26.784C311.09 27.392 310.946 27.84 310.658 28.128C310.402 28.384 309.97 28.512 309.362 28.512H296.114V32.208H305.474C306.082 32.208 306.514 32.352 306.77 32.64C307.058 32.896 307.202 33.328 307.202 33.936V39.072C307.202 39.68 307.058 40.128 306.77 40.416C306.514 40.672 306.082 40.8 305.474 40.8H296.114V44.928H309.362C309.97 44.928 310.402 45.072 310.658 45.36C310.946 45.616 311.09 46.048 311.09 46.656V52.272C311.09 52.88 310.946 53.328 310.658 53.616C310.402 53.872 309.97 54 309.362 54ZM332.416 28.08V34.224H336.016C336.848 34.224 337.408 34.016 337.696 33.6C337.984 33.152 338.128 32.608 338.128 31.968V30.336C338.128 29.696 337.984 29.168 337.696 28.752C337.408 28.304 336.848 28.08 336.016 28.08H332.416ZM330.688 54H323.296C322.688 54 322.24 53.872 321.952 53.616C321.696 53.328 321.568 52.88 321.568 52.272V21.168C321.568 20.56 321.696 20.128 321.952 19.872C322.24 19.584 322.688 19.44 323.296 19.44H339.28C342.864 19.44 345.328 20.192 346.672 21.696C348.048 23.168 348.736 25.088 348.736 27.456V29.664C348.736 31.008 348.528 32.16 348.112 33.12C347.728 34.048 347.04 34.72 346.048 35.136C347.776 35.328 349.168 36.032 350.224 37.248C351.312 38.464 351.856 40.08 351.856 42.096V52.272C351.856 52.88 351.712 53.328 351.424 53.616C351.168 53.872 350.736 54 350.128 54H342.688C342.08 54 341.632 53.872 341.344 53.616C341.088 53.328 340.96 52.88 340.96 52.272V44.928C340.96 44.224 340.816 43.712 340.528 43.392C340.272 43.04 339.808 42.864 339.136 42.864H332.416V52.272C332.416 52.88 332.272 53.328 331.984 53.616C331.728 53.872 331.296 54 330.688 54Z" fill="url(#paint0_radial_1_25)" fill-opacity="0.9"/>
<path d="M48.512 53.616L45.5224 56.2735L45.6787 56.4493L45.8545 56.6056L48.512 53.616ZM48.128 28.704H52.128V24.704H48.128V28.704ZM39.728 28.32L36.7384 30.9775L36.8947 31.1533L37.0705 31.3096L39.728 28.32ZM39.728 19.872L36.8996 17.0436L36.8996 17.0436L39.728 19.872ZM67.712 19.872L64.7224 22.5295L64.8787 22.7053L65.0545 22.8616L67.712 19.872ZM59.36 28.704V24.704H55.36V28.704H59.36ZM58.928 53.616L56.0996 50.7876L56.0996 50.7876L58.928 53.616ZM57.632 50H49.856V58H57.632V50ZM49.856 50C49.8173 50 49.9399 49.9942 50.1629 50.0579C50.3972 50.1249 50.7807 50.2808 51.1695 50.6264L45.8545 56.6056C47.1964 57.7984 48.8071 58 49.856 58V50ZM51.5016 50.9585C51.8472 51.3473 52.0031 51.7308 52.0701 51.9651C52.1338 52.1881 52.128 52.3107 52.128 52.272H44.128C44.128 53.3209 44.3296 54.9316 45.5224 56.2735L51.5016 50.9585ZM52.128 52.272V28.704H44.128V52.272H52.128ZM48.128 24.704H41.072V32.704H48.128V24.704ZM41.072 24.704C41.0333 24.704 41.1559 24.6982 41.3789 24.7619C41.6132 24.8289 41.9967 24.9848 42.3855 25.3304L37.0705 31.3096C38.4124 32.5024 40.0231 32.704 41.072 32.704V24.704ZM42.7176 25.6625C43.0632 26.0513 43.2191 26.4348 43.2861 26.6691C43.3498 26.8921 43.344 27.0147 43.344 26.976H35.344C35.344 28.0249 35.5456 29.6356 36.7384 30.9775L42.7176 25.6625ZM43.344 26.976V21.168H35.344V26.976H43.344ZM43.344 21.168C43.344 21.1239 43.3511 21.2683 43.2752 21.5244C43.1954 21.7936 43.0015 22.2554 42.5564 22.7004L36.8996 17.0436C35.521 18.4222 35.344 20.1783 35.344 21.168H43.344ZM42.5564 22.7004C42.1859 23.071 41.7908 23.2639 41.504 23.3561C41.3662 23.4004 41.2565 23.4208 41.1865 23.4303C41.1165 23.4399 41.0761 23.44 41.072 23.44V15.44C39.9207 15.44 38.238 15.7052 36.8996 17.0436L42.5564 22.7004ZM41.072 23.44H66.416V15.44H41.072V23.44ZM66.416 23.44C66.4125 23.44 66.3679 23.4399 66.2904 23.4292C66.213 23.4185 66.0883 23.3951 65.9311 23.3427C65.604 23.2337 65.138 22.9971 64.7224 22.5295L70.7016 17.2145C69.341 15.6839 67.5155 15.44 66.416 15.44V23.44ZM65.0545 22.8616C64.5869 22.446 64.3503 21.98 64.2413 21.6529C64.1889 21.4957 64.1655 21.371 64.1548 21.2936C64.1441 21.2161 64.144 21.1715 64.144 21.168H72.144C72.144 20.0685 71.9001 18.243 70.3695 16.8824L65.0545 22.8616ZM64.144 21.168V26.976H72.144V21.168H64.144ZM64.144 26.976C64.144 26.9719 64.1441 26.9315 64.1537 26.8615C64.1632 26.7915 64.1836 26.6818 64.2279 26.544C64.3201 26.2572 64.513 25.8621 64.8836 25.4916L70.5404 31.1484C71.8788 29.81 72.144 28.1273 72.144 26.976H64.144ZM64.8836 25.4916C65.3286 25.0465 65.7904 24.8526 66.0596 24.7728C66.3157 24.6969 66.4601 24.704 66.416 24.704V32.704C67.4057 32.704 69.1618 32.527 70.5404 31.1484L64.8836 25.4916ZM66.416 24.704H59.36V32.704H66.416V24.704ZM55.36 28.704V52.272H63.36V28.704H55.36ZM55.36 52.272C55.36 52.2679 55.3601 52.2275 55.3697 52.1575C55.3792 52.0875 55.3996 51.9778 55.4439 51.84C55.5361 51.5532 55.729 51.1581 56.0996 50.7876L61.7564 56.4444C63.0948 55.106 63.36 53.4233 63.36 52.272H55.36ZM56.0996 50.7876C56.5446 50.3425 57.0064 50.1486 57.2756 50.0688C57.5317 49.9929 57.6761 50 57.632 50V58C58.6216 58 60.3778 57.823 61.7564 56.4444L56.0996 50.7876ZM77.996 53.616L75.0064 56.2735L75.1627 56.4493L75.3385 56.6056L77.996 53.616ZM77.996 19.872L75.1676 17.0436L75.1676 17.0436L77.996 19.872ZM88.076 19.872L85.0864 22.5295L85.2427 22.7053L85.4185 22.8616L88.076 19.872ZM88.508 31.584H84.508V35.584H88.508V31.584ZM96.524 31.584V35.584H100.524V31.584H96.524ZM96.908 19.872L94.0796 17.0436L94.0796 17.0436L96.908 19.872ZM106.988 19.872L103.998 22.5295L104.155 22.7053L104.331 22.8616L106.988 19.872ZM106.988 53.616L109.816 56.4444L109.816 56.4444L106.988 53.616ZM96.908 53.616L93.9184 56.2735L94.0747 56.4493L94.2505 56.6056L96.908 53.616ZM96.524 41.616H100.524V37.616H96.524V41.616ZM88.508 41.616V37.616H84.508V41.616H88.508ZM88.076 53.616L85.2476 50.7876L85.2476 50.7876L88.076 53.616ZM86.78 50H79.34V58H86.78V50ZM79.34 50C79.3013 50 79.4239 49.9942 79.6469 50.0579C79.8812 50.1249 80.2647 50.2808 80.6535 50.6264L75.3385 56.6056C76.6804 57.7984 78.2911 58 79.34 58V50ZM80.9856 50.9585C81.3312 51.3473 81.4871 51.7308 81.5541 51.9651C81.6178 52.1881 81.612 52.3107 81.612 52.272H73.612C73.612 53.3209 73.8136 54.9316 75.0064 56.2735L80.9856 50.9585ZM81.612 52.272V21.168H73.612V52.272H81.612ZM81.612 21.168C81.612 21.1239 81.6191 21.2683 81.5432 21.5244C81.4634 21.7936 81.2695 22.2554 80.8244 22.7004L75.1676 17.0436C73.789 18.4222 73.612 20.1783 73.612 21.168H81.612ZM80.8244 22.7004C80.4539 23.071 80.0588 23.2639 79.772 23.3561C79.6342 23.4004 79.5245 23.4208 79.4545 23.4303C79.3844 23.4399 79.3441 23.44 79.34 23.44V15.44C78.1887 15.44 76.506 15.7052 75.1676 17.0436L80.8244 22.7004ZM79.34 23.44H86.78V15.44H79.34V23.44ZM86.78 23.44C86.7765 23.44 86.7319 23.4399 86.6544 23.4292C86.577 23.4185 86.4523 23.3951 86.2951 23.3427C85.968 23.2337 85.502 22.9971 85.0864 22.5295L91.0656 17.2145C89.705 15.6839 87.8795 15.44 86.78 15.44V23.44ZM85.4185 22.8616C84.9509 22.446 84.7143 21.98 84.6053 21.6529C84.5529 21.4957 84.5295 21.371 84.5188 21.2936C84.5081 21.2161 84.508 21.1715 84.508 21.168H92.508C92.508 20.0685 92.2641 18.243 90.7335 16.8824L85.4185 22.8616ZM84.508 21.168V31.584H92.508V21.168H84.508ZM88.508 35.584H96.524V27.584H88.508V35.584ZM100.524 31.584V21.168H92.524V31.584H100.524ZM100.524 21.168C100.524 21.1239 100.531 21.2683 100.455 21.5244C100.375 21.7936 100.181 22.2554 99.7364 22.7004L94.0796 17.0436C92.701 18.4222 92.524 20.1783 92.524 21.168H100.524ZM99.7364 22.7004C99.3659 23.071 98.9708 23.2639 98.684 23.3561C98.5462 23.4004 98.4365 23.4208 98.3665 23.4303C98.2965 23.4399 98.2561 23.44 98.252 23.44V15.44C97.1007 15.44 95.418 15.7052 94.0796 17.0436L99.7364 22.7004ZM98.252 23.44H105.692V15.44H98.252V23.44ZM105.692 23.44C105.688 23.44 105.644 23.4399 105.566 23.4292C105.489 23.4185 105.364 23.3951 105.207 23.3427C104.88 23.2337 104.414 22.9971 103.998 22.5295L109.978 17.2145C108.617 15.6839 106.792 15.44 105.692 15.44V23.44ZM104.331 22.8616C103.863 22.446 103.626 21.98 103.517 21.6529C103.465 21.4957 103.442 21.371 103.431 21.2936C103.42 21.2161 103.42 21.1715 103.42 21.168H111.42C111.42 20.0685 111.176 18.243 109.645 16.8824L104.331 22.8616ZM103.42 21.168V52.272H111.42V21.168H103.42ZM103.42 52.272C103.42 52.2679 103.42 52.2275 103.43 52.1575C103.439 52.0875 103.46 51.9778 103.504 51.84C103.596 51.5532 103.789 51.1581 104.16 50.7876L109.816 56.4444C111.155 55.106 111.42 53.4233 111.42 52.272H103.42ZM104.16 50.7876C104.605 50.3425 105.066 50.1486 105.336 50.0688C105.592 49.9929 105.736 50 105.692 50V58C106.682 58 108.438 57.823 109.816 56.4444L104.16 50.7876ZM105.692 50H98.252V58H105.692V50ZM98.252 50C98.2133 50 98.3359 49.9942 98.5589 50.0579C98.7932 50.1249 99.1767 50.2808 99.5655 50.6264L94.2505 56.6056C95.5924 57.7984 97.2031 58 98.252 58V50ZM99.8976 50.9585C100.243 51.3473 100.399 51.7308 100.466 51.9651C100.53 52.1881 100.524 52.3107 100.524 52.272H92.524C92.524 53.3209 92.7256 54.9316 93.9184 56.2735L99.8976 50.9585ZM100.524 52.272V41.616H92.524V52.272H100.524ZM96.524 37.616H88.508V45.616H96.524V37.616ZM84.508 41.616V52.272H92.508V41.616H84.508ZM84.508 52.272C84.508 52.2679 84.5081 52.2275 84.5177 52.1575C84.5272 52.0875 84.5476 51.9778 84.5919 51.84C84.684 51.5532 84.877 51.1581 85.2476 50.7876L90.9044 56.4444C92.2428 55.106 92.508 53.4233 92.508 52.272H84.508ZM85.2476 50.7876C85.6926 50.3425 86.1544 50.1486 86.4236 50.0688C86.6797 49.9929 86.8241 50 86.78 50V58C87.7696 58 89.5258 57.823 90.9044 56.4444L85.2476 50.7876ZM119.218 53.616L116.228 56.2735L116.385 56.4493L116.56 56.6056L119.218 53.616ZM119.218 19.872L116.389 17.0436L116.389 17.0436L119.218 19.872ZM144.13 19.872L141.14 22.5295L141.297 22.7053L141.472 22.8616L144.13 19.872ZM129.586 28.512V24.512H125.586V28.512H129.586ZM129.586 32.208H125.586V36.208H129.586V32.208ZM140.242 32.64L137.252 35.2975L137.409 35.4733L137.584 35.6296L140.242 32.64ZM129.586 40.8V36.8H125.586V40.8H129.586ZM129.586 44.928H125.586V48.928H129.586V44.928ZM144.13 45.36L141.14 48.0175L141.297 48.1933L141.472 48.3496L144.13 45.36ZM144.13 53.616L146.958 56.4444L146.958 56.4444L144.13 53.616ZM142.834 50H120.562V58H142.834V50ZM120.562 50C120.523 50 120.646 49.9942 120.869 50.0579C121.103 50.1249 121.487 50.2808 121.875 50.6264L116.56 56.6056C117.902 57.7984 119.513 58 120.562 58V50ZM122.208 50.9585C122.553 51.3473 122.709 51.7308 122.776 51.9651C122.84 52.1881 122.834 52.3107 122.834 52.272H114.834C114.834 53.3209 115.035 54.9316 116.228 56.2735L122.208 50.9585ZM122.834 52.272V21.168H114.834V52.272H122.834ZM122.834 21.168C122.834 21.1239 122.841 21.2683 122.765 21.5244C122.685 21.7936 122.491 22.2554 122.046 22.7004L116.389 17.0436C115.011 18.4222 114.834 20.1783 114.834 21.168H122.834ZM122.046 22.7004C121.676 23.071 121.281 23.2639 120.994 23.3561C120.856 23.4004 120.746 23.4208 120.676 23.4303C120.606 23.4399 120.566 23.44 120.562 23.44V15.44C119.411 15.44 117.728 15.7052 116.389 17.0436L122.046 22.7004ZM120.562 23.44H142.834V15.44H120.562V23.44ZM142.834 23.44C142.83 23.44 142.786 23.4399 142.708 23.4292C142.631 23.4185 142.506 23.3951 142.349 23.3427C142.022 23.2337 141.556 22.9971 141.14 22.5295L147.12 17.2145C145.759 15.6839 143.933 15.44 142.834 15.44V23.44ZM141.472 22.8616C141.005 22.446 140.768 21.98 140.659 21.6529C140.607 21.4957 140.583 21.371 140.573 21.2936C140.562 21.2161 140.562 21.1715 140.562 21.168H148.562C148.562 20.0685 148.318 18.243 146.787 16.8824L141.472 22.8616ZM140.562 21.168V26.784H148.562V21.168H140.562ZM140.562 26.784C140.562 26.7799 140.562 26.7395 140.572 26.6695C140.581 26.5995 140.601 26.4898 140.646 26.352C140.738 26.0652 140.931 25.6701 141.301 25.2996L146.958 30.9564C148.297 29.618 148.562 27.9353 148.562 26.784H140.562ZM141.301 25.2996C141.747 24.8545 142.208 24.6606 142.478 24.5808C142.734 24.5049 142.878 24.512 142.834 24.512V32.512C143.824 32.512 145.58 32.335 146.958 30.9564L141.301 25.2996ZM142.834 24.512H129.586V32.512H142.834V24.512ZM125.586 28.512V32.208H133.586V28.512H125.586ZM129.586 36.208H138.946V28.208H129.586V36.208ZM138.946 36.208C138.942 36.208 138.898 36.2079 138.82 36.1972C138.743 36.1865 138.618 36.1631 138.461 36.1107C138.134 36.0017 137.668 35.7651 137.252 35.2975L143.232 29.9825C141.871 28.4519 140.045 28.208 138.946 28.208V36.208ZM137.584 35.6296C137.117 35.214 136.88 34.748 136.771 34.4209C136.719 34.2637 136.695 34.139 136.685 34.0616C136.674 33.9841 136.674 33.9395 136.674 33.936H144.674C144.674 32.8365 144.43 31.011 142.899 29.6504L137.584 35.6296ZM136.674 33.936V39.072H144.674V33.936H136.674ZM136.674 39.072C136.674 39.0679 136.674 39.0275 136.684 38.9575C136.693 38.8875 136.713 38.7778 136.758 38.64C136.85 38.3532 137.043 37.9581 137.413 37.5876L143.07 43.2444C144.409 41.906 144.674 40.2233 144.674 39.072H136.674ZM137.413 37.5876C137.859 37.1425 138.32 36.9486 138.59 36.8688C138.846 36.7929 138.99 36.8 138.946 36.8V44.8C139.936 44.8 141.692 44.623 143.07 43.2444L137.413 37.5876ZM138.946 36.8H129.586V44.8H138.946V36.8ZM125.586 40.8V44.928H133.586V40.8H125.586ZM129.586 48.928H142.834V40.928H129.586V48.928ZM142.834 48.928C142.83 48.928 142.786 48.9279 142.708 48.9172C142.631 48.9065 142.506 48.8831 142.349 48.8307C142.022 48.7217 141.556 48.4851 141.14 48.0175L147.12 42.7025C145.759 41.1719 143.933 40.928 142.834 40.928V48.928ZM141.472 48.3496C141.005 47.934 140.768 47.468 140.659 47.1409C140.607 46.9837 140.583 46.859 140.573 46.7816C140.562 46.7041 140.562 46.6595 140.562 46.656H148.562C148.562 45.5565 148.318 43.731 146.787 42.3704L141.472 48.3496ZM140.562 46.656V52.272H148.562V46.656H140.562ZM140.562 52.272C140.562 52.2679 140.562 52.2275 140.572 52.1575C140.581 52.0875 140.601 51.9778 140.646 51.84C140.738 51.5532 140.931 51.1581 141.301 50.7876L146.958 56.4444C148.297 55.106 148.562 53.4233 148.562 52.272H140.562ZM141.301 50.7876C141.747 50.3425 142.208 50.1486 142.478 50.0688C142.734 49.9929 142.878 50 142.834 50V58C143.824 58 145.58 57.823 146.958 56.4444L141.301 50.7876ZM162.768 46.416L158.954 47.6205L158.993 47.7446L159.04 47.8658L162.768 46.416ZM162.96 44.736L166.352 46.856L166.363 46.838L166.374 46.8199L162.96 44.736ZM173.712 27.12L170.347 24.957L170.322 24.9962L170.298 25.0361L173.712 27.12ZM174.672 26.064L177.025 29.2989L177.117 29.232L177.205 29.1598L174.672 26.064ZM177.216 26.064L174.54 29.0372L174.695 29.1765L174.863 29.2989L177.216 26.064ZM178.176 27.12L181.59 25.0361L181.566 24.9962L181.541 24.957L178.176 27.12ZM188.928 44.736L185.514 46.8199L185.525 46.838L185.536 46.856L188.928 44.736ZM189.072 46.416L192.8 47.8658L192.813 47.8324L192.826 47.7988L189.072 46.416ZM187.968 43.28H163.92V51.28H187.968V43.28ZM163.92 43.28C164.393 43.28 165.033 43.4206 165.624 43.864C166.179 44.2799 166.414 44.7554 166.496 44.9662L159.04 47.8658C159.346 48.6526 159.886 49.5601 160.824 50.264C161.799 50.9954 162.903 51.28 163.92 51.28V43.28ZM166.582 45.2115C166.633 45.3728 166.686 45.6474 166.646 45.9942C166.606 46.3474 166.485 46.6436 166.352 46.856L159.568 42.616C158.589 44.1827 158.432 45.9673 158.954 47.6205L166.582 45.2115ZM166.374 46.8199L177.126 29.2039L170.298 25.0361L159.546 42.6521L166.374 46.8199ZM177.077 29.283C177.115 29.2241 177.134 29.2042 177.128 29.2107C177.121 29.2179 177.088 29.2526 177.025 29.2989L172.319 22.8291C171.488 23.4337 170.845 24.1824 170.347 24.957L177.077 29.283ZM177.205 29.1598C177.004 29.3244 176.77 29.453 176.525 29.5347C176.286 29.6144 176.089 29.632 175.968 29.632V21.632C174.656 21.632 173.296 22.022 172.139 22.9682L177.205 29.1598ZM175.968 29.632C175.85 29.632 175.631 29.6152 175.356 29.5199C175.07 29.4211 174.787 29.2589 174.54 29.0372L179.892 23.0908C178.703 22.0205 177.271 21.632 175.968 21.632V29.632ZM174.863 29.2989C174.8 29.2526 174.767 29.2179 174.76 29.2107C174.755 29.2042 174.774 29.2241 174.811 29.283L181.541 24.957C181.043 24.1824 180.4 23.4337 179.569 22.8291L174.863 29.2989ZM174.762 29.2039L185.514 46.8199L192.342 42.6521L181.59 25.0361L174.762 29.2039ZM185.536 46.856C185.386 46.6154 185.253 46.2793 185.219 45.8816C185.185 45.4937 185.259 45.196 185.319 45.0332L192.826 47.7988C193.441 46.1283 193.349 44.2625 192.32 42.616L185.536 46.856ZM185.344 44.9662C185.411 44.7943 185.626 44.3338 186.163 43.914C186.751 43.4538 187.421 43.28 187.968 43.28V51.28C189.027 51.28 190.137 50.9622 191.093 50.214C191.998 49.5062 192.509 48.6137 192.8 47.8658L185.344 44.9662ZM215.04 53.616L212.05 56.2735L212.207 56.4493L212.383 56.6056L215.04 53.616ZM214.656 28.704H218.656V24.704H214.656V28.704ZM206.256 28.32L203.266 30.9775L203.423 31.1533L203.599 31.3096L206.256 28.32ZM206.256 19.872L203.428 17.0436L203.428 17.0436L206.256 19.872ZM234.24 19.872L231.25 22.5295L231.407 22.7053L231.583 22.8616L234.24 19.872ZM225.888 28.704V24.704H221.888V28.704H225.888ZM225.456 53.616L222.628 50.7876L222.628 50.7876L225.456 53.616ZM224.16 50H216.384V58H224.16V50ZM216.384 50C216.345 50 216.468 49.9942 216.691 50.0579C216.925 50.1249 217.309 50.2808 217.698 50.6264L212.383 56.6056C213.724 57.7984 215.335 58 216.384 58V50ZM218.03 50.9585C218.375 51.3473 218.531 51.7308 218.598 51.9651C218.662 52.1881 218.656 52.3107 218.656 52.272H210.656C210.656 53.3209 210.858 54.9316 212.05 56.2735L218.03 50.9585ZM218.656 52.272V28.704H210.656V52.272H218.656ZM214.656 24.704H207.6V32.704H214.656V24.704ZM207.6 24.704C207.561 24.704 207.684 24.6982 207.907 24.7619C208.141 24.8289 208.525 24.9848 208.914 25.3304L203.599 31.3096C204.94 32.5024 206.551 32.704 207.6 32.704V24.704ZM209.246 25.6625C209.591 26.0513 209.747 26.4348 209.814 26.6691C209.878 26.8921 209.872 27.0147 209.872 26.976H201.872C201.872 28.0249 202.074 29.6356 203.266 30.9775L209.246 25.6625ZM209.872 26.976V21.168H201.872V26.976H209.872ZM209.872 21.168C209.872 21.1239 209.879 21.2683 209.803 21.5244C209.724 21.7936 209.53 22.2554 209.085 22.7004L203.428 17.0436C202.049 18.4222 201.872 20.1783 201.872 21.168H209.872ZM209.085 22.7004C208.714 23.071 208.319 23.2639 208.032 23.3561C207.894 23.4004 207.785 23.4208 207.715 23.4303C207.645 23.4399 207.604 23.44 207.6 23.44V15.44C206.449 15.44 204.766 15.7052 203.428 17.0436L209.085 22.7004ZM207.6 23.44H232.944V15.44H207.6V23.44ZM232.944 23.44C232.941 23.44 232.896 23.4399 232.819 23.4292C232.741 23.4185 232.616 23.3951 232.459 23.3427C232.132 23.2337 231.666 22.9971 231.25 22.5295L237.23 17.2145C235.869 15.6839 234.044 15.44 232.944 15.44V23.44ZM231.583 22.8616C231.115 22.446 230.878 21.98 230.769 21.6529C230.717 21.4957 230.694 21.371 230.683 21.2936C230.672 21.2161 230.672 21.1715 230.672 21.168H238.672C238.672 20.0685 238.428 18.243 236.898 16.8824L231.583 22.8616ZM230.672 21.168V26.976H238.672V21.168H230.672ZM230.672 26.976C230.672 26.9719 230.672 26.9315 230.682 26.8615C230.691 26.7915 230.712 26.6818 230.756 26.544C230.848 26.2572 231.041 25.8621 231.412 25.4916L237.069 31.1484C238.407 29.81 238.672 28.1273 238.672 26.976H230.672ZM231.412 25.4916C231.857 25.0465 232.319 24.8526 232.588 24.7728C232.844 24.6969 232.988 24.704 232.944 24.704V32.704C233.934 32.704 235.69 32.527 237.069 31.1484L231.412 25.4916ZM232.944 24.704H225.888V32.704H232.944V24.704ZM221.888 28.704V52.272H229.888V28.704H221.888ZM221.888 52.272C221.888 52.2679 221.888 52.2275 221.898 52.1575C221.907 52.0875 221.928 51.9778 221.972 51.84C222.064 51.5532 222.257 51.1581 222.628 50.7876L228.285 56.4444C229.623 55.106 229.888 53.4233 229.888 52.272H221.888ZM222.628 50.7876C223.073 50.3425 223.535 50.1486 223.804 50.0688C224.06 49.9929 224.204 50 224.16 50V58C225.15 58 226.906 57.823 228.285 56.4444L222.628 50.7876ZM244.524 53.616L241.534 56.2735L241.691 56.4493L241.867 56.6056L244.524 53.616ZM244.524 19.872L241.696 17.0436L241.696 17.0436L244.524 19.872ZM254.604 19.872L251.614 22.5295L251.771 22.7053L251.947 22.8616L254.604 19.872ZM255.036 31.584H251.036V35.584H255.036V31.584ZM263.052 31.584V35.584H267.052V31.584H263.052ZM263.436 19.872L260.608 17.0436L260.608 17.0436L263.436 19.872ZM273.516 19.872L270.526 22.5295L270.683 22.7053L270.859 22.8616L273.516 19.872ZM273.516 53.616L276.345 56.4444L276.345 56.4444L273.516 53.616ZM263.436 53.616L260.446 56.2735L260.603 56.4493L260.779 56.6056L263.436 53.616ZM263.052 41.616H267.052V37.616H263.052V41.616ZM255.036 41.616V37.616H251.036V41.616H255.036ZM254.604 53.616L251.776 50.7876L251.776 50.7876L254.604 53.616ZM253.308 50H245.868V58H253.308V50ZM245.868 50C245.829 50 245.952 49.9942 246.175 50.0579C246.409 50.1249 246.793 50.2808 247.182 50.6264L241.867 56.6056C243.209 57.7984 244.819 58 245.868 58V50ZM247.514 50.9585C247.859 51.3473 248.015 51.7308 248.082 51.9651C248.146 52.1881 248.14 52.3107 248.14 52.272H240.14C240.14 53.3209 240.342 54.9316 241.534 56.2735L247.514 50.9585ZM248.14 52.272V21.168H240.14V52.272H248.14ZM248.14 21.168C248.14 21.1239 248.147 21.2683 248.071 21.5244C247.992 21.7936 247.798 22.2554 247.353 22.7004L241.696 17.0436C240.317 18.4222 240.14 20.1783 240.14 21.168H248.14ZM247.353 22.7004C246.982 23.071 246.587 23.2639 246.3 23.3561C246.162 23.4004 246.053 23.4208 245.983 23.4303C245.913 23.4399 245.872 23.44 245.868 23.44V15.44C244.717 15.44 243.034 15.7052 241.696 17.0436L247.353 22.7004ZM245.868 23.44H253.308V15.44H245.868V23.44ZM253.308 23.44C253.305 23.44 253.26 23.4399 253.183 23.4292C253.105 23.4185 252.98 23.3951 252.823 23.3427C252.496 23.2337 252.03 22.9971 251.614 22.5295L257.594 17.2145C256.233 15.6839 254.408 15.44 253.308 15.44V23.44ZM251.947 22.8616C251.479 22.446 251.242 21.98 251.133 21.6529C251.081 21.4957 251.058 21.371 251.047 21.2936C251.036 21.2161 251.036 21.1715 251.036 21.168H259.036C259.036 20.0685 258.792 18.243 257.262 16.8824L251.947 22.8616ZM251.036 21.168V31.584H259.036V21.168H251.036ZM255.036 35.584H263.052V27.584H255.036V35.584ZM267.052 31.584V21.168H259.052V31.584H267.052ZM267.052 21.168C267.052 21.1239 267.059 21.2683 266.983 21.5244C266.904 21.7936 266.71 22.2554 266.265 22.7004L260.608 17.0436C259.229 18.4222 259.052 20.1783 259.052 21.168H267.052ZM266.265 22.7004C265.894 23.071 265.499 23.2639 265.212 23.3561C265.074 23.4004 264.965 23.4208 264.895 23.4303C264.825 23.4399 264.784 23.44 264.78 23.44V15.44C263.629 15.44 261.946 15.7052 260.608 17.0436L266.265 22.7004ZM264.78 23.44H272.22V15.44H264.78V23.44ZM272.22 23.44C272.217 23.44 272.172 23.4399 272.095 23.4292C272.017 23.4185 271.892 23.3951 271.735 23.3427C271.408 23.2337 270.942 22.9971 270.526 22.5295L276.506 17.2145C275.145 15.6839 273.32 15.44 272.22 15.44V23.44ZM270.859 22.8616C270.391 22.446 270.154 21.98 270.045 21.6529C269.993 21.4957 269.97 21.371 269.959 21.2936C269.948 21.2161 269.948 21.1715 269.948 21.168H277.948C277.948 20.0685 277.704 18.243 276.174 16.8824L270.859 22.8616ZM269.948 21.168V52.272H277.948V21.168H269.948ZM269.948 52.272C269.948 52.2679 269.948 52.2275 269.958 52.1575C269.967 52.0875 269.988 51.9778 270.032 51.84C270.124 51.5532 270.317 51.1581 270.688 50.7876L276.345 56.4444C277.683 55.106 277.948 53.4233 277.948 52.272H269.948ZM270.688 50.7876C271.133 50.3425 271.595 50.1486 271.864 50.0688C272.12 49.9929 272.264 50 272.22 50V58C273.21 58 274.966 57.823 276.345 56.4444L270.688 50.7876ZM272.22 50H264.78V58H272.22V50ZM264.78 50C264.741 50 264.864 49.9942 265.087 50.0579C265.321 50.1249 265.705 50.2808 266.094 50.6264L260.779 56.6056C262.121 57.7984 263.731 58 264.78 58V50ZM266.426 50.9585C266.771 51.3473 266.927 51.7308 266.994 51.9651C267.058 52.1881 267.052 52.3107 267.052 52.272H259.052C259.052 53.3209 259.254 54.9316 260.446 56.2735L266.426 50.9585ZM267.052 52.272V41.616H259.052V52.272H267.052ZM263.052 37.616H255.036V45.616H263.052V37.616ZM251.036 41.616V52.272H259.036V41.616H251.036ZM251.036 52.272C251.036 52.2679 251.036 52.2275 251.046 52.1575C251.055 52.0875 251.076 51.9778 251.12 51.84C251.212 51.5532 251.405 51.1581 251.776 50.7876L257.433 56.4444C258.771 55.106 259.036 53.4233 259.036 52.272H251.036ZM251.776 50.7876C252.221 50.3425 252.683 50.1486 252.952 50.0688C253.208 49.9929 253.352 50 253.308 50V58C254.298 58 256.054 57.823 257.433 56.4444L251.776 50.7876ZM285.746 53.616L282.756 56.2735L282.913 56.4493L283.089 56.6056L285.746 53.616ZM285.746 19.872L282.918 17.0436L282.918 17.0436L285.746 19.872ZM310.658 19.872L307.668 22.5295L307.825 22.7053L308.001 22.8616L310.658 19.872ZM296.114 28.512V24.512H292.114V28.512H296.114ZM296.114 32.208H292.114V36.208H296.114V32.208ZM306.77 32.64L303.78 35.2975L303.937 35.4733L304.113 35.6296L306.77 32.64ZM296.114 40.8V36.8H292.114V40.8H296.114ZM296.114 44.928H292.114V48.928H296.114V44.928ZM310.658 45.36L307.668 48.0175L307.825 48.1933L308.001 48.3496L310.658 45.36ZM310.658 53.616L313.486 56.4444L313.486 56.4444L310.658 53.616ZM309.362 50H287.09V58H309.362V50ZM287.09 50C287.051 50 287.174 49.9942 287.397 50.0579C287.631 50.1249 288.015 50.2808 288.403 50.6264L283.089 56.6056C284.43 57.7984 286.041 58 287.09 58V50ZM288.736 50.9585C289.081 51.3473 289.237 51.7308 289.304 51.9651C289.368 52.1881 289.362 52.3107 289.362 52.272H281.362C281.362 53.3209 281.564 54.9316 282.756 56.2735L288.736 50.9585ZM289.362 52.272V21.168H281.362V52.272H289.362ZM289.362 21.168C289.362 21.1239 289.369 21.2683 289.293 21.5244C289.213 21.7936 289.019 22.2554 288.574 22.7004L282.918 17.0436C281.539 18.4222 281.362 20.1783 281.362 21.168H289.362ZM288.574 22.7004C288.204 23.071 287.809 23.2639 287.522 23.3561C287.384 23.4004 287.275 23.4208 287.204 23.4303C287.134 23.4399 287.094 23.44 287.09 23.44V15.44C285.939 15.44 284.256 15.7052 282.918 17.0436L288.574 22.7004ZM287.09 23.44H309.362V15.44H287.09V23.44ZM309.362 23.44C309.358 23.44 309.314 23.4399 309.236 23.4292C309.159 23.4185 309.034 23.3951 308.877 23.3427C308.55 23.2337 308.084 22.9971 307.668 22.5295L313.648 17.2145C312.287 15.6839 310.462 15.44 309.362 15.44V23.44ZM308.001 22.8616C307.533 22.446 307.296 21.98 307.187 21.6529C307.135 21.4957 307.112 21.371 307.101 21.2936C307.09 21.2161 307.09 21.1715 307.09 21.168H315.09C315.09 20.0685 314.846 18.243 313.315 16.8824L308.001 22.8616ZM307.09 21.168V26.784H315.09V21.168H307.09ZM307.09 26.784C307.09 26.7799 307.09 26.7395 307.1 26.6695C307.109 26.5995 307.13 26.4898 307.174 26.352C307.266 26.0652 307.459 25.6701 307.83 25.2996L313.486 30.9564C314.825 29.618 315.09 27.9353 315.09 26.784H307.09ZM307.83 25.2996C308.275 24.8545 308.736 24.6606 309.006 24.5808C309.262 24.5049 309.406 24.512 309.362 24.512V32.512C310.352 32.512 312.108 32.335 313.486 30.9564L307.83 25.2996ZM309.362 24.512H296.114V32.512H309.362V24.512ZM292.114 28.512V32.208H300.114V28.512H292.114ZM296.114 36.208H305.474V28.208H296.114V36.208ZM305.474 36.208C305.47 36.208 305.426 36.2079 305.348 36.1972C305.271 36.1865 305.146 36.1631 304.989 36.1107C304.662 36.0017 304.196 35.7651 303.78 35.2975L309.76 29.9825C308.399 28.4519 306.574 28.208 305.474 28.208V36.208ZM304.113 35.6296C303.645 35.214 303.408 34.748 303.299 34.4209C303.247 34.2637 303.224 34.139 303.213 34.0616C303.202 33.9841 303.202 33.9395 303.202 33.936H311.202C311.202 32.8365 310.958 31.011 309.427 29.6504L304.113 35.6296ZM303.202 33.936V39.072H311.202V33.936H303.202ZM303.202 39.072C303.202 39.0679 303.202 39.0275 303.212 38.9575C303.221 38.8875 303.242 38.7778 303.286 38.64C303.378 38.3532 303.571 37.9581 303.942 37.5876L309.598 43.2444C310.937 41.906 311.202 40.2233 311.202 39.072H303.202ZM303.942 37.5876C304.387 37.1425 304.848 36.9486 305.118 36.8688C305.374 36.7929 305.518 36.8 305.474 36.8V44.8C306.464 44.8 308.22 44.623 309.598 43.2444L303.942 37.5876ZM305.474 36.8H296.114V44.8H305.474V36.8ZM292.114 40.8V44.928H300.114V40.8H292.114ZM296.114 48.928H309.362V40.928H296.114V48.928ZM309.362 48.928C309.358 48.928 309.314 48.9279 309.236 48.9172C309.159 48.9065 309.034 48.8831 308.877 48.8307C308.55 48.7217 308.084 48.4851 307.668 48.0175L313.648 42.7025C312.287 41.1719 310.462 40.928 309.362 40.928V48.928ZM308.001 48.3496C307.533 47.934 307.296 47.468 307.187 47.1409C307.135 46.9837 307.112 46.859 307.101 46.7816C307.09 46.7041 307.09 46.6595 307.09 46.656H315.09C315.09 45.5565 314.846 43.731 313.315 42.3704L308.001 48.3496ZM307.09 46.656V52.272H315.09V46.656H307.09ZM307.09 52.272C307.09 52.2679 307.09 52.2275 307.1 52.1575C307.109 52.0875 307.13 51.9778 307.174 51.84C307.266 51.5532 307.459 51.1581 307.83 50.7876L313.486 56.4444C314.825 55.106 315.09 53.4233 315.09 52.272H307.09ZM307.83 50.7876C308.275 50.3425 308.736 50.1486 309.006 50.0688C309.262 49.9929 309.406 50 309.362 50V58C310.352 58 312.108 57.823 313.486 56.4444L307.83 50.7876ZM332.416 28.08V24.08H328.416V28.08H332.416ZM332.416 34.224H328.416V38.224H332.416V34.224ZM337.696 33.6L340.985 35.8768L341.024 35.8206L341.061 35.763L337.696 33.6ZM337.696 28.752L334.332 30.915L334.369 30.9726L334.407 31.0288L337.696 28.752ZM321.952 53.616L318.963 56.2735L319.119 56.4493L319.295 56.6056L321.952 53.616ZM321.952 19.872L319.124 17.0436L319.124 17.0436L321.952 19.872ZM346.672 21.696L343.69 24.3613L343.72 24.3948L343.75 24.4275L346.672 21.696ZM348.112 33.12L344.442 31.5296L344.429 31.56L344.416 31.5906L348.112 33.12ZM346.048 35.136L344.501 31.4472L330.285 37.4091L345.607 39.1115L346.048 35.136ZM350.224 37.248L347.204 39.8707L347.224 39.8931L347.243 39.9152L350.224 37.248ZM351.424 53.616L354.253 56.4444L354.253 56.4444L351.424 53.616ZM341.344 53.616L338.355 56.2735L338.511 56.4493L338.687 56.6056L341.344 53.616ZM340.528 43.392L337.293 45.7447L337.416 45.9131L337.555 46.0679L340.528 43.392ZM332.416 42.864V38.864H328.416V42.864H332.416ZM331.984 53.616L329.156 50.7876L329.156 50.7876L331.984 53.616ZM328.416 28.08V34.224H336.416V28.08H328.416ZM332.416 38.224H336.016V30.224H332.416V38.224ZM336.016 38.224C337.306 38.224 339.569 37.9229 340.985 35.8768L334.407 31.3232C334.809 30.7428 335.322 30.4467 335.668 30.3183C335.971 30.2057 336.13 30.224 336.016 30.224V38.224ZM341.061 35.763C341.841 34.5498 342.128 33.2187 342.128 31.968H334.128C334.128 31.9889 334.126 31.9365 334.153 31.8324C334.182 31.7237 334.237 31.5837 334.332 31.437L341.061 35.763ZM342.128 31.968V30.336H334.128V31.968H342.128ZM342.128 30.336C342.128 29.0983 341.845 27.718 340.985 26.4752L334.407 31.0288C334.123 30.618 334.128 30.2937 334.128 30.336H342.128ZM341.061 26.589C339.689 24.4546 337.408 24.08 336.016 24.08V32.08C336.103 32.08 335.91 32.0959 335.575 31.9619C335.189 31.8075 334.696 31.4815 334.332 30.915L341.061 26.589ZM336.016 24.08H332.416V32.08H336.016V24.08ZM330.688 50H323.296V58H330.688V50ZM323.296 50C323.258 50 323.38 49.9942 323.603 50.0579C323.837 50.1249 324.221 50.2808 324.61 50.6264L319.295 56.6056C320.637 57.7984 322.247 58 323.296 58V50ZM324.942 50.9585C325.287 51.3473 325.443 51.7308 325.51 51.9651C325.574 52.1881 325.568 52.3107 325.568 52.272H317.568C317.568 53.3209 317.77 54.9316 318.963 56.2735L324.942 50.9585ZM325.568 52.272V21.168H317.568V52.272H325.568ZM325.568 21.168C325.568 21.1239 325.575 21.2683 325.499 21.5244C325.42 21.7936 325.226 22.2554 324.781 22.7004L319.124 17.0436C317.745 18.4222 317.568 20.1783 317.568 21.168H325.568ZM324.781 22.7004C324.41 23.071 324.015 23.2639 323.728 23.3561C323.59 23.4004 323.481 23.4208 323.411 23.4303C323.341 23.4399 323.3 23.44 323.296 23.44V15.44C322.145 15.44 320.462 15.7052 319.124 17.0436L324.781 22.7004ZM323.296 23.44H339.28V15.44H323.296V23.44ZM339.28 23.44C342.552 23.44 343.521 24.1723 343.69 24.3613L349.655 19.0307C347.136 16.2117 343.176 15.44 339.28 15.44V23.44ZM343.75 24.4275C344.314 25.0309 344.736 25.9128 344.736 27.456H352.736C352.736 24.2632 351.782 21.3051 349.594 18.9645L343.75 24.4275ZM344.736 27.456V29.664H352.736V27.456H344.736ZM344.736 29.664C344.736 30.6103 344.588 31.1926 344.442 31.5296L351.782 34.7104C352.468 33.1274 352.736 31.4057 352.736 29.664H344.736ZM344.416 31.5906C344.417 31.5889 344.425 31.5702 344.444 31.5415C344.464 31.5125 344.488 31.4836 344.513 31.4585C344.539 31.4336 344.557 31.421 344.561 31.4186C344.564 31.4166 344.547 31.4281 344.501 31.4472L347.595 38.8248C349.484 38.0327 350.99 36.6265 351.808 34.6494L344.416 31.5906ZM345.607 39.1115C346.422 39.2022 346.862 39.477 347.204 39.8707L353.244 34.6253C351.474 32.587 349.13 31.4538 346.49 31.1605L345.607 39.1115ZM347.243 39.9152C347.53 40.2356 347.856 40.8224 347.856 42.096H355.856C355.856 39.3376 355.095 36.6924 353.205 34.5808L347.243 39.9152ZM347.856 42.096V52.272H355.856V42.096H347.856ZM347.856 52.272C347.856 52.2679 347.856 52.2275 347.866 52.1575C347.875 52.0875 347.896 51.9778 347.94 51.84C348.032 51.5532 348.225 51.1581 348.596 50.7876L354.253 56.4444C355.591 55.106 355.856 53.4233 355.856 52.272H347.856ZM348.596 50.7876C349.041 50.3425 349.503 50.1486 349.772 50.0688C350.028 49.9929 350.172 50 350.128 50V58C351.118 58 352.874 57.823 354.253 56.4444L348.596 50.7876ZM350.128 50H342.688V58H350.128V50ZM342.688 50C342.65 50 342.772 49.9942 342.995 50.0579C343.229 50.1249 343.613 50.2808 344.002 50.6264L338.687 56.6056C340.029 57.7984 341.639 58 342.688 58V50ZM344.334 50.9585C344.679 51.3473 344.835 51.7308 344.902 51.9651C344.966 52.1881 344.96 52.3107 344.96 52.272H336.96C336.96 53.3209 337.162 54.9316 338.355 56.2735L344.334 50.9585ZM344.96 52.272V44.928H336.96V52.272H344.96ZM344.96 44.928C344.96 43.8253 344.76 42.1147 343.501 40.7161L337.555 46.0679C337.203 45.6765 337.058 45.2979 337.002 45.099C336.948 44.9099 336.96 44.8315 336.96 44.928H344.96ZM343.763 41.0393C342.414 39.1843 340.371 38.864 339.136 38.864V46.864C339.133 46.864 339.08 46.864 338.989 46.8498C338.898 46.8357 338.751 46.8049 338.57 46.736C338.179 46.5878 337.685 46.2829 337.293 45.7447L343.763 41.0393ZM339.136 38.864H332.416V46.864H339.136V38.864ZM328.416 42.864V52.272H336.416V42.864H328.416ZM328.416 52.272C328.416 52.2679 328.416 52.2275 328.426 52.1575C328.435 52.0875 328.456 51.9778 328.5 51.84C328.592 51.5532 328.785 51.1581 329.156 50.7876L334.813 56.4444C336.151 55.106 336.416 53.4233 336.416 52.272H328.416ZM329.156 50.7876C329.601 50.3425 330.063 50.1486 330.332 50.0688C330.588 49.9929 330.732 50 330.688 50V58C331.678 58 333.434 57.823 334.813 56.4444L329.156 50.7876Z" fill="url(#paint1_radial_1_25)" fill-opacity="0.15"/>
<mask id="path-3-inside-1_1_25" fill="white">
<path d="M0 0H391V74H0V0Z"/>
</mask>
<path d="M0 0V-0.5L-9.5 -0.5C-9.77614 -0.5 -10 -0.276142 -10 0H0ZM391 0H401C401 -0.276142 400.776 -0.5 400.5 -0.5L391 -0.5V0ZM391 74V74.5H400.5C400.776 74.5 401 74.2761 401 74H391ZM0 74H-10C-10 74.2761 -9.77614 74.5 -9.5 74.5H0V74ZM-10 9.25C-10 14.7728 -5.52285 19.25 0 19.25C5.52285 19.25 10 14.7728 10 9.25H-10ZM10 27.75C10 22.2272 5.52285 17.75 0 17.75C-5.52285 17.75 -10 22.2272 -10 27.75H10ZM-10 46.25C-10 51.7728 -5.52285 56.25 0 56.25C5.52285 56.25 10 51.7728 10 46.25H-10ZM10 64.75C10 59.2272 5.52285 54.75 0 54.75C-5.52285 54.75 -10 59.2272 -10 64.75H10ZM9.775 74.5C10.0511 74.5 10.275 74.2761 10.275 74C10.275 73.7239 10.0511 73.5 9.775 73.5V74.5ZM29.325 73.5C29.0489 73.5 28.825 73.7239 28.825 74C28.825 74.2761 29.0489 74.5 29.325 74.5V73.5ZM48.875 74.5C49.1511 74.5 49.375 74.2761 49.375 74C49.375 73.7239 49.1511 73.5 48.875 73.5V74.5ZM68.425 73.5C68.1489 73.5 67.925 73.7239 67.925 74C67.925 74.2761 68.1489 74.5 68.425 74.5V73.5ZM87.975 74.5C88.2511 74.5 88.475 74.2761 88.475 74C88.475 73.7239 88.2511 73.5 87.975 73.5V74.5ZM107.525 73.5C107.249 73.5 107.025 73.7239 107.025 74C107.025 74.2761 107.249 74.5 107.525 74.5V73.5ZM127.075 74.5C127.351 74.5 127.575 74.2761 127.575 74C127.575 73.7239 127.351 73.5 127.075 73.5V74.5ZM146.625 73.5C146.349 73.5 146.125 73.7239 146.125 74C146.125 74.2761 146.349 74.5 146.625 74.5V73.5ZM166.175 74.5C166.451 74.5 166.675 74.2761 166.675 74C166.675 73.7239 166.451 73.5 166.175 73.5V74.5ZM185.725 73.5C185.449 73.5 185.225 73.7239 185.225 74C185.225 74.2761 185.449 74.5 185.725 74.5V73.5ZM205.275 74.5C205.551 74.5 205.775 74.2761 205.775 74C205.775 73.7239 205.551 73.5 205.275 73.5V74.5ZM224.825 73.5C224.549 73.5 224.325 73.7239 224.325 74C224.325 74.2761 224.549 74.5 224.825 74.5V73.5ZM244.375 74.5C244.651 74.5 244.875 74.2761 244.875 74C244.875 73.7239 244.651 73.5 244.375 73.5V74.5ZM263.925 73.5C263.649 73.5 263.425 73.7239 263.425 74C263.425 74.2761 263.649 74.5 263.925 74.5V73.5ZM283.475 74.5C283.751 74.5 283.975 74.2761 283.975 74C283.975 73.7239 283.751 73.5 283.475 73.5V74.5ZM303.025 73.5C302.749 73.5 302.525 73.7239 302.525 74C302.525 74.2761 302.749 74.5 303.025 74.5V73.5ZM322.575 74.5C322.851 74.5 323.075 74.2761 323.075 74C323.075 73.7239 322.851 73.5 322.575 73.5V74.5ZM342.125 73.5C341.849 73.5 341.625 73.7239 341.625 74C341.625 74.2761 341.849 74.5 342.125 74.5V73.5ZM361.675 74.5C361.951 74.5 362.175 74.2761 362.175 74C362.175 73.7239 361.951 73.5 361.675 73.5V74.5ZM381.225 73.5C380.949 73.5 380.725 73.7239 380.725 74C380.725 74.2761 380.949 74.5 381.225 74.5V73.5ZM401 64.75C401 59.2272 396.523 54.75 391 54.75C385.477 54.75 381 59.2272 381 64.75H401ZM381 46.25C381 51.7728 385.477 56.25 391 56.25C396.523 56.25 401 51.7728 401 46.25H381ZM401 27.75C401 22.2272 396.523 17.75 391 17.75C385.477 17.75 381 22.2272 381 27.75H401ZM381 9.25C381 14.7728 385.477 19.25 391 19.25C396.523 19.25 401 14.7728 401 9.25H381ZM381.225 -0.5C380.949 -0.5 380.725 -0.276142 380.725 0C380.725 0.276142 380.949 0.5 381.225 0.5V-0.5ZM361.675 0.5C361.951 0.5 362.175 0.276142 362.175 0C362.175 -0.276142 361.951 -0.5 361.675 -0.5V0.5ZM342.125 -0.5C341.849 -0.5 341.625 -0.276142 341.625 0C341.625 0.276142 341.849 0.5 342.125 0.5V-0.5ZM322.575 0.5C322.851 0.5 323.075 0.276142 323.075 0C323.075 -0.276142 322.851 -0.5 322.575 -0.5V0.5ZM303.025 -0.5C302.749 -0.5 302.525 -0.276142 302.525 0C302.525 0.276142 302.749 0.5 303.025 0.5V-0.5ZM283.475 0.5C283.751 0.5 283.975 0.276142 283.975 0C283.975 -0.276142 283.751 -0.5 283.475 -0.5V0.5ZM263.925 -0.5C263.649 -0.5 263.425 -0.276142 263.425 0C263.425 0.276142 263.649 0.5 263.925 0.5V-0.5ZM244.375 0.5C244.651 0.5 244.875 0.276142 244.875 0C244.875 -0.276142 244.651 -0.5 244.375 -0.5V0.5ZM224.825 -0.5C224.549 -0.5 224.325 -0.276142 224.325 0C224.325 0.276142 224.549 0.5 224.825 0.5V-0.5ZM205.275 0.5C205.551 0.5 205.775 0.276142 205.775 0C205.775 -0.276142 205.551 -0.5 205.275 -0.5V0.5ZM185.725 -0.5C185.449 -0.5 185.225 -0.276142 185.225 0C185.225 0.276142 185.449 0.5 185.725 0.5V-0.5ZM166.175 0.5C166.451 0.5 166.675 0.276142 166.675 0C166.675 -0.276142 166.451 -0.5 166.175 -0.5V0.5ZM146.625 -0.5C146.349 -0.5 146.125 -0.276142 146.125 0C146.125 0.276142 146.349 0.5 146.625 0.5V-0.5ZM127.075 0.5C127.351 0.5 127.575 0.276142 127.575 0C127.575 -0.276142 127.351 -0.5 127.075 -0.5V0.5ZM107.525 -0.5C107.249 -0.5 107.025 -0.276142 107.025 0C107.025 0.276142 107.249 0.5 107.525 0.5V-0.5ZM87.975 0.5C88.2512 0.5 88.475 0.276142 88.475 0C88.475 -0.276142 88.2512 -0.5 87.975 -0.5V0.5ZM68.425 -0.5C68.1489 -0.5 67.925 -0.276142 67.925 0C67.925 0.276142 68.1489 0.5 68.425 0.5V-0.5ZM48.875 0.5C49.1512 0.5 49.375 0.276142 49.375 0C49.375 -0.276142 49.1512 -0.5 48.875 -0.5V0.5ZM29.325 -0.5C29.0489 -0.5 28.825 -0.276142 28.825 0C28.825 0.276142 29.0489 0.5 29.325 0.5V-0.5ZM9.77506 0.5C10.0512 0.5 10.2751 0.276142 10.2751 0C10.2751 -0.276142 10.0512 -0.5 9.77506 -0.5V0.5ZM-10 0V9.25H10V0H-10ZM-10 27.75V46.25H10V27.75H-10ZM-10 64.75V74H10V64.75H-10ZM0 74.5H9.775V73.5H0V74.5ZM29.325 74.5H48.875V73.5H29.325V74.5ZM68.425 74.5H87.975V73.5H68.425V74.5ZM107.525 74.5H127.075V73.5H107.525V74.5ZM146.625 74.5H166.175V73.5H146.625V74.5ZM185.725 74.5H205.275V73.5H185.725V74.5ZM224.825 74.5H244.375V73.5H224.825V74.5ZM263.925 74.5H283.475V73.5H263.925V74.5ZM303.025 74.5H322.575V73.5H303.025V74.5ZM342.125 74.5H361.675V73.5H342.125V74.5ZM381.225 74.5H391V73.5H381.225V74.5ZM401 74V64.75H381V74H401ZM401 46.25V27.75H381V46.25H401ZM401 9.25V0H381V9.25H401ZM391 -0.5H381.225V0.5H391V-0.5ZM361.675 -0.5H342.125V0.5H361.675V-0.5ZM322.575 -0.5H303.025V0.5H322.575V-0.5ZM283.475 -0.5H263.925V0.5H283.475V-0.5ZM244.375 -0.5H224.825V0.5H244.375V-0.5ZM205.275 -0.5H185.725V0.5H205.275V-0.5ZM166.175 -0.5H146.625V0.5H166.175V-0.5ZM127.075 -0.5H107.525V0.5H127.075V-0.5ZM87.975 -0.5H68.425V0.5H87.975V-0.5ZM48.875 -0.5H29.325V0.5H48.875V-0.5ZM9.77506 -0.5H0V0.5H9.77506V-0.5ZM0 0V-1L-19 -1C-19.5523 -1 -20 -0.552285 -20 0H0ZM391 0H411C411 -0.552285 410.552 -1 410 -1L391 -1V0ZM391 74V75H410C410.552 75 411 74.5523 411 74H391ZM0 74H-20C-20 74.5523 -19.5523 75 -19 75H0V74ZM-20 9.25C-20 20.2957 -11.0457 29.25 0 29.25C11.0457 29.25 20 20.2957 20 9.25H-20ZM20 27.75C20 16.7043 11.0457 7.75 0 7.75C-11.0457 7.75 -20 16.7043 -20 27.75H20ZM-20 46.25C-20 57.2957 -11.0457 66.25 0 66.25C11.0457 66.25 20 57.2957 20 46.25H-20ZM20 64.75C20 53.7043 11.0457 44.75 0 44.75C-11.0457 44.75 -20 53.7043 -20 64.75H20ZM9.775 75C10.3273 75 10.775 74.5523 10.775 74C10.775 73.4477 10.3273 73 9.775 73V75ZM29.325 73C28.7727 73 28.325 73.4477 28.325 74C28.325 74.5523 28.7727 75 29.325 75V73ZM48.875 75C49.4273 75 49.875 74.5523 49.875 74C49.875 73.4477 49.4273 73 48.875 73V75ZM68.425 73C67.8727 73 67.425 73.4477 67.425 74C67.425 74.5523 67.8727 75 68.425 75V73ZM87.975 75C88.5273 75 88.975 74.5523 88.975 74C88.975 73.4477 88.5273 73 87.975 73V75ZM107.525 73C106.973 73 106.525 73.4477 106.525 74C106.525 74.5523 106.973 75 107.525 75V73ZM127.075 75C127.627 75 128.075 74.5523 128.075 74C128.075 73.4477 127.627 73 127.075 73V75ZM146.625 73C146.073 73 145.625 73.4477 145.625 74C145.625 74.5523 146.073 75 146.625 75V73ZM166.175 75C166.727 75 167.175 74.5523 167.175 74C167.175 73.4477 166.727 73 166.175 73V75ZM185.725 73C185.173 73 184.725 73.4477 184.725 74C184.725 74.5523 185.173 75 185.725 75V73ZM205.275 75C205.827 75 206.275 74.5523 206.275 74C206.275 73.4477 205.827 73 205.275 73V75ZM224.825 73C224.273 73 223.825 73.4477 223.825 74C223.825 74.5523 224.273 75 224.825 75V73ZM244.375 75C244.927 75 245.375 74.5523 245.375 74C245.375 73.4477 244.927 73 244.375 73V75ZM263.925 73C263.373 73 262.925 73.4477 262.925 74C262.925 74.5523 263.373 75 263.925 75V73ZM283.475 75C284.027 75 284.475 74.5523 284.475 74C284.475 73.4477 284.027 73 283.475 73V75ZM303.025 73C302.473 73 302.025 73.4477 302.025 74C302.025 74.5523 302.473 75 303.025 75V73ZM322.575 75C323.127 75 323.575 74.5523 323.575 74C323.575 73.4477 323.127 73 322.575 73V75ZM342.125 73C341.573 73 341.125 73.4477 341.125 74C341.125 74.5523 341.573 75 342.125 75V73ZM361.675 75C362.227 75 362.675 74.5523 362.675 74C362.675 73.4477 362.227 73 361.675 73V75ZM381.225 73C380.673 73 380.225 73.4477 380.225 74C380.225 74.5523 380.673 75 381.225 75V73ZM411 64.75C411 53.7043 402.046 44.75 391 44.75C379.954 44.75 371 53.7043 371 64.75H411ZM371 46.25C371 57.2957 379.954 66.25 391 66.25C402.046 66.25 411 57.2957 411 46.25H371ZM411 27.75C411 16.7043 402.046 7.75 391 7.75C379.954 7.75 371 16.7043 371 27.75H411ZM371 9.25C371 20.2957 379.954 29.25 391 29.25C402.046 29.25 411 20.2957 411 9.25H371ZM381.225 -1C380.673 -1 380.225 -0.552285 380.225 0C380.225 0.552285 380.673 1 381.225 1V-1ZM361.675 1C362.227 1 362.675 0.552285 362.675 0C362.675 -0.552285 362.227 -1 361.675 -1V1ZM342.125 -1C341.573 -1 341.125 -0.552285 341.125 0C341.125 0.552285 341.573 1 342.125 1V-1ZM322.575 1C323.127 1 323.575 0.552285 323.575 0C323.575 -0.552285 323.127 -1 322.575 -1V1ZM303.025 -1C302.473 -1 302.025 -0.552285 302.025 0C302.025 0.552285 302.473 1 303.025 1V-1ZM283.475 1C284.027 1 284.475 0.552285 284.475 0C284.475 -0.552285 284.027 -1 283.475 -1V1ZM263.925 -1C263.373 -1 262.925 -0.552285 262.925 0C262.925 0.552285 263.373 1 263.925 1V-1ZM244.375 1C244.927 1 245.375 0.552285 245.375 0C245.375 -0.552285 244.927 -1 244.375 -1V1ZM224.825 -1C224.273 -1 223.825 -0.552285 223.825 0C223.825 0.552285 224.273 1 224.825 1V-1ZM205.275 1C205.827 1 206.275 0.552285 206.275 0C206.275 -0.552285 205.827 -1 205.275 -1V1ZM185.725 -1C185.173 -1 184.725 -0.552285 184.725 0C184.725 0.552285 185.173 1 185.725 1V-1ZM166.175 1C166.727 1 167.175 0.552285 167.175 0C167.175 -0.552285 166.727 -1 166.175 -1V1ZM146.625 -1C146.073 -1 145.625 -0.552285 145.625 0C145.625 0.552285 146.073 1 146.625 1V-1ZM127.075 1C127.627 1 128.075 0.552285 128.075 0C128.075 -0.552285 127.627 -1 127.075 -1V1ZM107.525 -1C106.973 -1 106.525 -0.552285 106.525 0C106.525 0.552285 106.973 1 107.525 1V-1ZM87.975 1C88.5273 1 88.975 0.552285 88.975 0C88.975 -0.552285 88.5273 -1 87.975 -1V1ZM68.425 -1C67.8727 -1 67.425 -0.552285 67.425 0C67.425 0.552285 67.8727 1 68.425 1V-1ZM48.875 1C49.4273 1 49.875 0.552285 49.875 0C49.875 -0.552285 49.4273 -1 48.875 -1V1ZM29.325 -1C28.7728 -1 28.325 -0.552285 28.325 0C28.325 0.552285 28.7728 1 29.325 1V-1ZM9.77506 1C10.3273 1 10.7751 0.552285 10.7751 0C10.7751 -0.552285 10.3273 -1 9.77506 -1V1ZM-20 0V9.25H20V0H-20ZM-20 27.75V46.25H20V27.75H-20ZM-20 64.75V74H20V64.75H-20ZM0 75H9.775V73H0V75ZM29.325 75H48.875V73H29.325V75ZM68.425 75H87.975V73H68.425V75ZM107.525 75H127.075V73H107.525V75ZM146.625 75H166.175V73H146.625V75ZM185.725 75H205.275V73H185.725V75ZM224.825 75H244.375V73H224.825V75ZM263.925 75H283.475V73H263.925V75ZM303.025 75H322.575V73H303.025V75ZM342.125 75H361.675V73H342.125V75ZM381.225 75H391V73H381.225V75ZM411 74V64.75H371V74H411ZM411 46.25V27.75H371V46.25H411ZM411 9.25V0H371V9.25H411ZM391 -1H381.225V1H391V-1ZM361.675 -1H342.125V1H361.675V-1ZM322.575 -1H303.025V1H322.575V-1ZM283.475 -1H263.925V1H283.475V-1ZM244.375 -1H224.825V1H244.375V-1ZM205.275 -1H185.725V1H205.275V-1ZM166.175 -1H146.625V1H166.175V-1ZM127.075 -1H107.525V1H127.075V-1ZM87.975 -1H68.425V1H87.975V-1ZM48.875 -1H29.325V1H48.875V-1ZM9.77506 -1H0V1H9.77506V-1Z" fill="url(#paint2_linear_1_25)" fill-opacity="0.5" mask="url(#path-3-inside-1_1_25)"/>
<rect x="329" y="101" width="267" height="35" transform="rotate(-180 329 101)" fill="#262445"/>
<path d="M99.432 77.2307V78.9047H96.102V89.7407H94.05V78.9047H90.702V77.2307H99.432ZM105.362 81.2627C105.662 80.7587 106.058 80.3687 106.55 80.0927C107.054 79.8047 107.648 79.6607 108.332 79.6607V81.7847H107.81C107.006 81.7847 106.394 81.9887 105.974 82.3967C105.566 82.8047 105.362 83.5127 105.362 84.5207V89.7407H103.31V79.8227H105.362V81.2627ZM111.334 84.7367C111.334 83.7407 111.538 82.8587 111.946 82.0907C112.366 81.3227 112.93 80.7287 113.638 80.3087C114.358 79.8767 115.15 79.6607 116.014 79.6607C116.794 79.6607 117.472 79.8167 118.048 80.1287C118.636 80.4287 119.104 80.8067 119.452 81.2627V79.8227H121.522V89.7407H119.452V88.2647C119.104 88.7327 118.63 89.1227 118.03 89.4347C117.43 89.7467 116.746 89.9027 115.978 89.9027C115.126 89.9027 114.346 89.6867 113.638 89.2547C112.93 88.8107 112.366 88.1987 111.946 87.4187C111.538 86.6267 111.334 85.7327 111.334 84.7367ZM119.452 84.7727C119.452 84.0887 119.308 83.4947 119.02 82.9907C118.744 82.4867 118.378 82.1027 117.922 81.8387C117.466 81.5747 116.974 81.4427 116.446 81.4427C115.918 81.4427 115.426 81.5747 114.97 81.8387C114.514 82.0907 114.142 82.4687 113.854 82.9727C113.578 83.4647 113.44 84.0527 113.44 84.7367C113.44 85.4207 113.578 86.0207 113.854 86.5367C114.142 87.0527 114.514 87.4487 114.97 87.7247C115.438 87.9887 115.93 88.1207 116.446 88.1207C116.974 88.1207 117.466 87.9887 117.922 87.7247C118.378 87.4607 118.744 87.0767 119.02 86.5727C119.308 86.0567 119.452 85.4567 119.452 84.7727ZM125.334 84.7367C125.334 83.7407 125.538 82.8587 125.946 82.0907C126.366 81.3227 126.93 80.7287 127.638 80.3087C128.358 79.8767 129.156 79.6607 130.032 79.6607C130.68 79.6607 131.316 79.8047 131.94 80.0927C132.576 80.3687 133.08 80.7407 133.452 81.2087V76.4207H135.522V89.7407H133.452V88.2467C133.116 88.7267 132.648 89.1227 132.048 89.4347C131.46 89.7467 130.782 89.9027 130.014 89.9027C129.15 89.9027 128.358 89.6867 127.638 89.2547C126.93 88.8107 126.366 88.1987 125.946 87.4187C125.538 86.6267 125.334 85.7327 125.334 84.7367ZM133.452 84.7727C133.452 84.0887 133.308 83.4947 133.02 82.9907C132.744 82.4867 132.378 82.1027 131.922 81.8387C131.466 81.5747 130.974 81.4427 130.446 81.4427C129.918 81.4427 129.426 81.5747 128.97 81.8387C128.514 82.0907 128.142 82.4687 127.854 82.9727C127.578 83.4647 127.44 84.0527 127.44 84.7367C127.44 85.4207 127.578 86.0207 127.854 86.5367C128.142 87.0527 128.514 87.4487 128.97 87.7247C129.438 87.9887 129.93 88.1207 130.446 88.1207C130.974 88.1207 131.466 87.9887 131.922 87.7247C132.378 87.4607 132.744 87.0767 133.02 86.5727C133.308 86.0567 133.452 85.4567 133.452 84.7727ZM149.107 84.5387C149.107 84.9107 149.083 85.2467 149.035 85.5467H141.457C141.517 86.3387 141.811 86.9747 142.339 87.4547C142.867 87.9347 143.515 88.1747 144.283 88.1747C145.387 88.1747 146.167 87.7127 146.623 86.7887H148.837C148.537 87.7007 147.991 88.4507 147.199 89.0387C146.419 89.6147 145.447 89.9027 144.283 89.9027C143.335 89.9027 142.483 89.6927 141.727 89.2727C140.983 88.8407 140.395 88.2407 139.963 87.4727C139.543 86.6927 139.333 85.7927 139.333 84.7727C139.333 83.7527 139.537 82.8587 139.945 82.0907C140.365 81.3107 140.947 80.7107 141.691 80.2907C142.447 79.8707 143.311 79.6607 144.283 79.6607C145.219 79.6607 146.053 79.8647 146.785 80.2727C147.517 80.6807 148.087 81.2567 148.495 82.0007C148.903 82.7327 149.107 83.5787 149.107 84.5387ZM146.965 83.8907C146.953 83.1347 146.683 82.5287 146.155 82.0727C145.627 81.6167 144.973 81.3887 144.193 81.3887C143.485 81.3887 142.879 81.6167 142.375 82.0727C141.871 82.5167 141.571 83.1227 141.475 83.8907H146.965ZM168.492 84.5387C168.492 84.9107 168.468 85.2467 168.42 85.5467H160.842C160.902 86.3387 161.196 86.9747 161.724 87.4547C162.252 87.9347 162.9 88.1747 163.668 88.1747C164.772 88.1747 165.552 87.7127 166.008 86.7887H168.222C167.922 87.7007 167.376 88.4507 166.584 89.0387C165.804 89.6147 164.832 89.9027 163.668 89.9027C162.72 89.9027 161.868 89.6927 161.112 89.2727C160.368 88.8407 159.78 88.2407 159.348 87.4727C158.928 86.6927 158.718 85.7927 158.718 84.7727C158.718 83.7527 158.922 82.8587 159.33 82.0907C159.75 81.3107 160.332 80.7107 161.076 80.2907C161.832 79.8707 162.696 79.6607 163.668 79.6607C164.604 79.6607 165.438 79.8647 166.17 80.2727C166.902 80.6807 167.472 81.2567 167.88 82.0007C168.288 82.7327 168.492 83.5787 168.492 84.5387ZM166.35 83.8907C166.338 83.1347 166.068 82.5287 165.54 82.0727C165.012 81.6167 164.358 81.3887 163.578 81.3887C162.87 81.3887 162.264 81.6167 161.76 82.0727C161.256 82.5167 160.956 83.1227 160.86 83.8907H166.35ZM176.145 87.9047L178.953 79.8227H181.131L177.351 89.7407H174.903L171.141 79.8227H173.337L176.145 87.9047ZM193.572 84.5387C193.572 84.9107 193.548 85.2467 193.5 85.5467H185.922C185.982 86.3387 186.276 86.9747 186.804 87.4547C187.332 87.9347 187.98 88.1747 188.748 88.1747C189.852 88.1747 190.632 87.7127 191.088 86.7887H193.302C193.002 87.7007 192.456 88.4507 191.664 89.0387C190.884 89.6147 189.912 89.9027 188.748 89.9027C187.8 89.9027 186.948 89.6927 186.192 89.2727C185.448 88.8407 184.86 88.2407 184.428 87.4727C184.008 86.6927 183.798 85.7927 183.798 84.7727C183.798 83.7527 184.002 82.8587 184.41 82.0907C184.83 81.3107 185.412 80.7107 186.156 80.2907C186.912 79.8707 187.776 79.6607 188.748 79.6607C189.684 79.6607 190.518 79.8647 191.25 80.2727C191.982 80.6807 192.552 81.2567 192.96 82.0007C193.368 82.7327 193.572 83.5787 193.572 84.5387ZM191.43 83.8907C191.418 83.1347 191.148 82.5287 190.62 82.0727C190.092 81.6167 189.438 81.3887 188.658 81.3887C187.95 81.3887 187.344 81.6167 186.84 82.0727C186.336 82.5167 186.036 83.1227 185.94 83.8907H191.43ZM202.396 79.6607C203.176 79.6607 203.872 79.8227 204.484 80.1467C205.108 80.4707 205.594 80.9507 205.942 81.5867C206.29 82.2227 206.464 82.9907 206.464 83.8907V89.7407H204.43V84.1967C204.43 83.3087 204.208 82.6307 203.764 82.1627C203.32 81.6827 202.714 81.4427 201.946 81.4427C201.178 81.4427 200.566 81.6827 200.11 82.1627C199.666 82.6307 199.444 83.3087 199.444 84.1967V89.7407H197.392V79.8227H199.444V80.9567C199.78 80.5487 200.206 80.2307 200.722 80.0027C201.25 79.7747 201.808 79.6607 202.396 79.6607ZM213.275 81.4967V86.9867C213.275 87.3587 213.359 87.6287 213.527 87.7967C213.707 87.9527 214.007 88.0307 214.427 88.0307H215.687V89.7407H214.067C213.143 89.7407 212.435 89.5247 211.943 89.0927C211.451 88.6607 211.205 87.9587 211.205 86.9867V81.4967H210.035V79.8227H211.205V77.3567H213.275V79.8227H215.687V81.4967H213.275ZM228.248 81.4967V86.9867C228.248 87.3587 228.332 87.6287 228.5 87.7967C228.68 87.9527 228.98 88.0307 229.4 88.0307H230.66V89.7407H229.04C228.116 89.7407 227.408 89.5247 226.916 89.0927C226.424 88.6607 226.178 87.9587 226.178 86.9867V81.4967H225.008V79.8227H226.178V77.3567H228.248V79.8227H230.66V81.4967H228.248ZM235.396 78.5087C235.024 78.5087 234.712 78.3827 234.46 78.1307C234.208 77.8787 234.082 77.5667 234.082 77.1947C234.082 76.8227 234.208 76.5107 234.46 76.2587C234.712 76.0067 235.024 75.8807 235.396 75.8807C235.756 75.8807 236.062 76.0067 236.314 76.2587C236.566 76.5107 236.692 76.8227 236.692 77.1947C236.692 77.5667 236.566 77.8787 236.314 78.1307C236.062 78.3827 235.756 78.5087 235.396 78.5087ZM236.404 79.8227V89.7407H234.352V79.8227H236.404ZM240.214 84.7727C240.214 83.7527 240.418 82.8587 240.826 82.0907C241.246 81.3107 241.822 80.7107 242.554 80.2907C243.286 79.8707 244.126 79.6607 245.074 79.6607C246.274 79.6607 247.264 79.9487 248.044 80.5247C248.836 81.0887 249.37 81.8987 249.646 82.9547H247.432C247.252 82.4627 246.964 82.0787 246.568 81.8027C246.172 81.5267 245.674 81.3887 245.074 81.3887C244.234 81.3887 243.562 81.6887 243.058 82.2887C242.566 82.8767 242.32 83.7047 242.32 84.7727C242.32 85.8407 242.566 86.6747 243.058 87.2747C243.562 87.8747 244.234 88.1747 245.074 88.1747C246.262 88.1747 247.048 87.6527 247.432 86.6087H249.646C249.358 87.6167 248.818 88.4207 248.026 89.0207C247.234 89.6087 246.25 89.9027 245.074 89.9027C244.126 89.9027 243.286 89.6927 242.554 89.2727C241.822 88.8407 241.246 88.2407 240.826 87.4727C240.418 86.6927 240.214 85.7927 240.214 84.7727ZM257.415 84.7907L261.987 89.7407H259.215L255.543 85.4747V89.7407H253.491V76.4207H255.543V84.1607L259.143 79.8227H261.987L257.415 84.7907ZM274.347 84.5387C274.347 84.9107 274.323 85.2467 274.275 85.5467H266.697C266.757 86.3387 267.051 86.9747 267.579 87.4547C268.107 87.9347 268.755 88.1747 269.523 88.1747C270.627 88.1747 271.407 87.7127 271.863 86.7887H274.077C273.777 87.7007 273.231 88.4507 272.439 89.0387C271.659 89.6147 270.687 89.9027 269.523 89.9027C268.575 89.9027 267.723 89.6927 266.967 89.2727C266.223 88.8407 265.635 88.2407 265.203 87.4727C264.783 86.6927 264.573 85.7927 264.573 84.7727C264.573 83.7527 264.777 82.8587 265.185 82.0907C265.605 81.3107 266.187 80.7107 266.931 80.2907C267.687 79.8707 268.551 79.6607 269.523 79.6607C270.459 79.6607 271.293 79.8647 272.025 80.2727C272.757 80.6807 273.327 81.2567 273.735 82.0007C274.143 82.7327 274.347 83.5787 274.347 84.5387ZM272.205 83.8907C272.193 83.1347 271.923 82.5287 271.395 82.0727C270.867 81.6167 270.213 81.3887 269.433 81.3887C268.725 81.3887 268.119 81.6167 267.615 82.0727C267.111 82.5167 266.811 83.1227 266.715 83.8907H272.205ZM280.561 81.4967V86.9867C280.561 87.3587 280.645 87.6287 280.813 87.7967C280.993 87.9527 281.293 88.0307 281.713 88.0307H282.973V89.7407H281.353C280.429 89.7407 279.721 89.5247 279.229 89.0927C278.737 88.6607 278.491 87.9587 278.491 86.9867V81.4967H277.321V79.8227H278.491V77.3567H280.561V79.8227H282.973V81.4967H280.561ZM290.264 89.9027C289.484 89.9027 288.782 89.7647 288.158 89.4887C287.546 89.2007 287.06 88.8167 286.7 88.3367C286.34 87.8447 286.148 87.2987 286.124 86.6987H288.248C288.284 87.1187 288.482 87.4727 288.842 87.7607C289.214 88.0367 289.676 88.1747 290.228 88.1747C290.804 88.1747 291.248 88.0667 291.56 87.8507C291.884 87.6227 292.046 87.3347 292.046 86.9867C292.046 86.6147 291.866 86.3387 291.506 86.1587C291.158 85.9787 290.6 85.7807 289.832 85.5647C289.088 85.3607 288.482 85.1627 288.014 84.9707C287.546 84.7787 287.138 84.4847 286.79 84.0887C286.454 83.6927 286.286 83.1707 286.286 82.5227C286.286 81.9947 286.442 81.5147 286.754 81.0827C287.066 80.6387 287.51 80.2907 288.086 80.0387C288.674 79.7867 289.346 79.6607 290.102 79.6607C291.23 79.6607 292.136 79.9487 292.82 80.5247C293.516 81.0887 293.888 81.8627 293.936 82.8467H291.884C291.848 82.4027 291.668 82.0487 291.344 81.7847C291.02 81.5207 290.582 81.3887 290.03 81.3887C289.49 81.3887 289.076 81.4907 288.788 81.6947C288.5 81.8987 288.356 82.1687 288.356 82.5047C288.356 82.7687 288.452 82.9907 288.644 83.1707C288.836 83.3507 289.07 83.4947 289.346 83.6027C289.622 83.6987 290.03 83.8247 290.57 83.9807C291.29 84.1727 291.878 84.3707 292.334 84.5747C292.802 84.7667 293.204 85.0547 293.54 85.4387C293.876 85.8227 294.05 86.3327 294.062 86.9687C294.062 87.5327 293.906 88.0367 293.594 88.4807C293.282 88.9247 292.838 89.2727 292.262 89.5247C291.698 89.7767 291.032 89.9027 290.264 89.9027Z" fill="#BBB2DF"/>
<defs>
<radialGradient id="paint0_radial_1_25" cx="0" cy="0" r="1" gradientUnits="userSpaceOnUse" gradientTransform="translate(196 37) rotate(90) scale(29 158)">
<stop offset="0.279514" stop-color="#D5C1A3"/>
<stop offset="0.644097" stop-color="#FE8C8C"/>
<stop offset="1" stop-color="#988FFF"/>
</radialGradient>
<radialGradient id="paint1_radial_1_25" cx="0" cy="0" r="1" gradientUnits="userSpaceOnUse" gradientTransform="translate(196 37) rotate(90) scale(29 158)">
<stop offset="0.237847" stop-color="#E7D3B5"/>
<stop offset="0.451389" stop-color="#FE8C8C"/>
<stop offset="1" stop-color="#988FFF"/>
</radialGradient>
<linearGradient id="paint2_linear_1_25" x1="431" y1="18.7033" x2="-38.9303" y2="28.5397" gradientUnits="userSpaceOnUse">
<stop offset="0.300347" stop-color="#423F70"/>
<stop offset="0.675347" stop-color="#FE8C8C"/>
<stop offset="1" stop-color="#FFF2DF"/>
</linearGradient>
</defs>
</svg>
