<svg width="315" height="38" viewBox="0 0 315 38" fill="none" xmlns="http://www.w3.org/2000/svg">
<mask id="path-1-outside-1_11_790" maskUnits="userSpaceOnUse" x="0" y="0" width="315" height="38" fill="black">
<rect fill="white" width="315" height="38"/>
<path d="M4 14C4 8.47715 8.47715 4 14 4H301C306.523 4 311 8.47715 311 14V24C311 29.5228 306.523 34 301 34H14C8.47715 34 4 29.5228 4 24V14Z"/>
</mask>
<path d="M4 14C4 8.47715 8.47715 4 14 4H301C306.523 4 311 8.47715 311 14V24C311 29.5228 306.523 34 301 34H14C8.47715 34 4 29.5228 4 24V14Z" fill="#7F6299"/>
<path d="M10.9382 31.3937L9.09078 30.6276L7.55856 34.3225L9.40601 35.0886L10.9382 31.3937ZM2.91135 28.594L3.67746 30.4414L7.37236 28.9092L6.60626 27.0618L2.91135 28.594ZM6 21.5V19.5H2V21.5H6ZM2 16.5V18.5H6V16.5H2ZM6.60626 10.9382L7.37237 9.09078L3.67746 7.55856L2.91135 9.40601L6.60626 10.9382ZM9.40601 2.91135L7.55856 3.67746L9.09078 7.37236L10.9382 6.60626L9.40601 2.91135ZM17.9861 6H19.9861V2H17.9861V6ZM25.9583 2H23.9583V6H25.9583V2ZM33.9306 6H35.9306V2H33.9306V6ZM41.9028 2H39.9028V6H41.9028V2ZM49.875 6H51.875V2H49.875V6ZM57.8472 2H55.8472V6H57.8472V2ZM65.8194 6H67.8194V2H65.8194V6ZM73.7917 2H71.7917V6H73.7917V2ZM81.7639 6H83.7639V2H81.7639V6ZM89.7361 2H87.7361V6H89.7361V2ZM97.7083 6H99.7083V2H97.7083V6ZM105.681 2H103.681V6H105.681V2ZM113.653 6H115.653V2H113.653V6ZM121.625 2H119.625V6H121.625V2ZM129.597 6H131.597V2H129.597V6ZM137.569 2H135.569V6H137.569V2ZM145.542 6H147.542V2H145.542V6ZM153.514 2H151.514V6H153.514V2ZM161.486 6H163.486V2H161.486V6ZM169.458 2H167.458V6H169.458V2ZM177.431 6H179.431V2H177.431V6ZM185.403 2H183.403V6H185.403V2ZM193.375 6H195.375V2H193.375V6ZM201.347 2H199.347V6H201.347V2ZM209.319 6H211.319V2H209.319V6ZM217.292 2H215.292V6H217.292V2ZM225.264 6H227.264V2H225.264V6ZM233.236 2H231.236V6H233.236V2ZM241.208 6H243.208V2H241.208V6ZM249.181 2H247.181V6H249.181V2ZM257.153 6H259.153V2H257.153V6ZM265.125 2H263.125V6H265.125V2ZM273.097 6H275.097V2H273.097V6ZM281.07 2H279.07V6H281.07V2ZM289.042 6H291.042V2H289.042V6ZM297.014 2H295.014V6H297.014V2ZM304.062 6.60626L305.909 7.37237L307.441 3.67746L305.594 2.91135L304.062 6.60626ZM312.089 9.40602L311.323 7.55856L307.628 9.09078L308.394 10.9382L312.089 9.40602ZM309 16.5V18.5H313V16.5H309ZM313 21.5V19.5H309V21.5H313ZM308.394 27.0618L307.628 28.9092L311.323 30.4414L312.089 28.594L308.394 27.0618ZM305.594 35.0886L307.441 34.3225L305.909 30.6276L304.062 31.3937L305.594 35.0886ZM297.014 32H295.014V36H297.014V32ZM289.042 36H291.042V32H289.042V36ZM281.069 32H279.069V36H281.069V32ZM273.097 36H275.097V32H273.097V36ZM265.125 32H263.125V36H265.125V32ZM257.153 36H259.153V32H257.153V36ZM249.181 32H247.181V36H249.181V32ZM241.208 36H243.208V32H241.208V36ZM233.236 32H231.236V36H233.236V32ZM225.264 36H227.264V32H225.264V36ZM217.292 32H215.292V36H217.292V32ZM209.319 36H211.319V32H209.319V36ZM201.347 32H199.347V36H201.347V32ZM193.375 36H195.375V32H193.375V36ZM185.403 32H183.403V36H185.403V32ZM177.431 36H179.431V32H177.431V36ZM169.458 32H167.458V36H169.458V32ZM161.486 36H163.486V32H161.486V36ZM153.514 32H151.514V36H153.514V32ZM145.542 36H147.542V32H145.542V36ZM137.569 32H135.569V36H137.569V32ZM129.597 36H131.597V32H129.597V36ZM121.625 32H119.625V36H121.625V32ZM113.653 36H115.653V32H113.653V36ZM105.681 32H103.681V36H105.681V32ZM97.7083 36H99.7083V32H97.7083V36ZM89.7361 32H87.7361V36H89.7361V32ZM81.7638 36H83.7638V32H81.7638V36ZM73.7916 32H71.7916V36H73.7916V32ZM65.8194 36H67.8194V32H65.8194V36ZM57.8471 32H55.8471V36H57.8471V32ZM49.8749 36H51.8749V32H49.8749V36ZM41.9027 32H39.9027V36H41.9027V32ZM33.9304 36H35.9304V32H33.9304V36ZM25.9582 32H23.9582V36H25.9582V32ZM17.986 36H19.986V32H17.986V36ZM14 32C12.9116 32 11.8787 31.7837 10.9382 31.3937L9.40601 35.0886C10.8237 35.6765 12.3766 36 14 36V32ZM6.60626 27.0618C6.21625 26.1213 6 25.0884 6 24H2C2 25.6234 2.32347 27.1763 2.91135 28.594L6.60626 27.0618ZM6 24V21.5H2V24H6ZM6 16.5V14H2V16.5H6ZM6 14C6 12.9116 6.21625 11.8787 6.60626 10.9382L2.91135 9.40601C2.32347 10.8237 2 12.3766 2 14H6ZM10.9382 6.60626C11.8787 6.21625 12.9116 6 14 6V2C12.3766 2 10.8237 2.32347 9.40601 2.91135L10.9382 6.60626ZM14 6H17.9861V2H14V6ZM25.9583 6H33.9306V2H25.9583V6ZM41.9028 6H49.875V2H41.9028V6ZM57.8472 6H65.8194V2H57.8472V6ZM73.7917 6H81.7639V2H73.7917V6ZM89.7361 6H97.7083V2H89.7361V6ZM105.681 6H113.653V2H105.681V6ZM121.625 6H129.597V2H121.625V6ZM137.569 6H145.542V2H137.569V6ZM153.514 6H161.486V2H153.514V6ZM169.458 6H177.431V2H169.458V6ZM185.403 6H193.375V2H185.403V6ZM201.347 6H209.319V2H201.347V6ZM217.292 6H225.264V2H217.292V6ZM233.236 6H241.208V2H233.236V6ZM249.181 6H257.153V2H249.181V6ZM265.125 6H273.097V2H265.125V6ZM281.07 6H289.042V2H281.07V6ZM297.014 6H301V2H297.014V6ZM301 6C302.088 6 303.121 6.21625 304.062 6.60626L305.594 2.91135C304.176 2.32347 302.623 2 301 2V6ZM308.394 10.9382C308.784 11.8787 309 12.9116 309 14H313C313 12.3766 312.677 10.8237 312.089 9.40602L308.394 10.9382ZM309 14V16.5H313V14H309ZM309 21.5V24H313V21.5H309ZM309 24C309 25.0884 308.784 26.1213 308.394 27.0618L312.089 28.594C312.677 27.1763 313 25.6234 313 24H309ZM304.062 31.3937C303.121 31.7837 302.088 32 301 32V36C302.623 36 304.176 35.6765 305.594 35.0886L304.062 31.3937ZM301 32H297.014V36H301V32ZM289.042 32H281.069V36H289.042V32ZM273.097 32H265.125V36H273.097V32ZM257.153 32H249.181V36H257.153V32ZM241.208 32H233.236V36H241.208V32ZM225.264 32H217.292V36H225.264V32ZM209.319 32H201.347V36H209.319V32ZM193.375 32H185.403V36H193.375V32ZM177.431 32H169.458V36H177.431V32ZM161.486 32H153.514V36H161.486V32ZM145.542 32H137.569V36H145.542V32ZM129.597 32H121.625V36H129.597V32ZM113.653 32H105.681V36H113.653V32ZM97.7083 32H89.7361V36H97.7083V32ZM81.7638 32H73.7916V36H81.7638V32ZM65.8194 32H57.8471V36H65.8194V32ZM49.8749 32H41.9027V36H49.8749V32ZM33.9304 32H25.9582V36H33.9304V32ZM17.986 32H14V36H17.986V32ZM11.7043 29.5463L8.00943 28.0141L4.945 35.4039L8.6399 36.9361L11.7043 29.5463ZM1.0639 29.3601L2.59612 33.055L9.98592 29.9906L8.45371 26.2957L1.0639 29.3601ZM8 21.5V17.5H0V21.5H8ZM0 16.5V20.5H8V16.5H0ZM8.45371 11.7043L9.98593 8.00943L2.59612 4.945L1.0639 8.63991L8.45371 11.7043ZM8.63991 1.0639L4.945 2.59612L8.00943 9.98592L11.7043 8.45371L8.63991 1.0639ZM17.9861 8H21.9861V0H17.9861V8ZM25.9583 0H21.9583V8H25.9583V0ZM33.9306 8H37.9306V0H33.9306V8ZM41.9028 0H37.9028V8H41.9028V0ZM49.875 8H53.875V0H49.875V8ZM57.8472 0H53.8472V8H57.8472V0ZM65.8194 8H69.8194V0H65.8194V8ZM73.7917 0H69.7917V8H73.7917V0ZM81.7639 8H85.7639V0H81.7639V8ZM89.7361 0H85.7361V8H89.7361V0ZM97.7083 8H101.708V0H97.7083V8ZM105.681 0H101.681V8H105.681V0ZM113.653 8H117.653V0H113.653V8ZM121.625 0H117.625V8H121.625V0ZM129.597 8H133.597V0H129.597V8ZM137.569 0H133.569V8H137.569V0ZM145.542 8H149.542V0H145.542V8ZM153.514 0H149.514V8H153.514V0ZM161.486 8H165.486V0H161.486V8ZM169.458 0H165.458V8H169.458V0ZM177.431 8H181.431V0H177.431V8ZM185.403 0H181.403V8H185.403V0ZM193.375 8H197.375V0H193.375V8ZM201.347 0H197.347V8H201.347V0ZM209.319 8H213.319V0H209.319V8ZM217.292 0H213.292V8H217.292V0ZM225.264 8H229.264V0H225.264V8ZM233.236 0H229.236V8H233.236V0ZM241.208 8H245.208V0H241.208V8ZM249.181 0H245.181V8H249.181V0ZM257.153 8H261.153V0H257.153V8ZM265.125 0H261.125V8H265.125V0ZM273.097 8H277.097V0H273.097V8ZM281.07 0H277.07V8H281.07V0ZM289.042 8H293.042V0H289.042V8ZM297.014 0H293.014V8H297.014V0ZM303.296 8.45371L306.991 9.98593L310.055 2.59612L306.36 1.0639L303.296 8.45371ZM313.936 8.63991L312.404 4.945L305.014 8.00943L306.546 11.7043L313.936 8.63991ZM307 16.5V20.5H315V16.5H307ZM315 21.5V17.5H307V21.5H315ZM306.546 26.2957L305.014 29.9906L312.404 33.055L313.936 29.3601L306.546 26.2957ZM306.36 36.9361L310.055 35.4039L306.991 28.0141L303.296 29.5463L306.36 36.9361ZM297.014 30H293.014V38H297.014V30ZM289.042 38H293.042V30H289.042V38ZM281.069 30H277.069V38H281.069V30ZM273.097 38H277.097V30H273.097V38ZM265.125 30H261.125V38H265.125V30ZM257.153 38H261.153V30H257.153V38ZM249.181 30H245.181V38H249.181V30ZM241.208 38H245.208V30H241.208V38ZM233.236 30H229.236V38H233.236V30ZM225.264 38H229.264V30H225.264V38ZM217.292 30H213.292V38H217.292V30ZM209.319 38H213.319V30H209.319V38ZM201.347 30H197.347V38H201.347V30ZM193.375 38H197.375V30H193.375V38ZM185.403 30H181.403V38H185.403V30ZM177.431 38H181.431V30H177.431V38ZM169.458 30H165.458V38H169.458V30ZM161.486 38H165.486V30H161.486V38ZM153.514 30H149.514V38H153.514V30ZM145.542 38H149.542V30H145.542V38ZM137.569 30H133.569V38H137.569V30ZM129.597 38H133.597V30H129.597V38ZM121.625 30H117.625V38H121.625V30ZM113.653 38H117.653V30H113.653V38ZM105.681 30H101.681V38H105.681V30ZM97.7083 38H101.708V30H97.7083V38ZM89.7361 30H85.7361V38H89.7361V30ZM81.7638 38H85.7638V30H81.7638V38ZM73.7916 30H69.7916V38H73.7916V30ZM65.8194 38H69.8194V30H65.8194V38ZM57.8471 30H53.8471V38H57.8471V30ZM49.8749 38H53.8749V30H49.8749V38ZM41.9027 30H37.9027V38H41.9027V30ZM33.9304 38H37.9304V30H33.9304V38ZM25.9582 30H21.9582V38H25.9582V30ZM17.986 38H21.986V30H17.986V38ZM14 30C13.1791 30 12.4062 29.8374 11.7043 29.5463L8.6399 36.9361C10.2962 37.6229 12.1091 38 14 38V30ZM8.45371 26.2957C8.16264 25.5938 8 24.8209 8 24H0C0 25.8909 0.377079 27.7038 1.0639 29.3601L8.45371 26.2957ZM8 24V21.5H0V24H8ZM8 16.5V14H0V16.5H8ZM8 14C8 13.1791 8.16264 12.4062 8.45371 11.7043L1.0639 8.63991C0.377079 10.2962 0 12.1091 0 14H8ZM11.7043 8.45371C12.4062 8.16264 13.1791 8 14 8V0C12.1091 0 10.2962 0.377079 8.63991 1.0639L11.7043 8.45371ZM14 8H17.9861V0H14V8ZM25.9583 8H33.9306V0H25.9583V8ZM41.9028 8H49.875V0H41.9028V8ZM57.8472 8H65.8194V0H57.8472V8ZM73.7917 8H81.7639V0H73.7917V8ZM89.7361 8H97.7083V0H89.7361V8ZM105.681 8H113.653V0H105.681V8ZM121.625 8H129.597V0H121.625V8ZM137.569 8H145.542V0H137.569V8ZM153.514 8H161.486V0H153.514V8ZM169.458 8H177.431V0H169.458V8ZM185.403 8H193.375V0H185.403V8ZM201.347 8H209.319V0H201.347V8ZM217.292 8H225.264V0H217.292V8ZM233.236 8H241.208V0H233.236V8ZM249.181 8H257.153V0H249.181V8ZM265.125 8H273.097V0H265.125V8ZM281.07 8H289.042V0H281.07V8ZM297.014 8H301V0H297.014V8ZM301 8C301.821 8 302.594 8.16264 303.296 8.45371L306.36 1.0639C304.704 0.377079 302.891 0 301 0V8ZM306.546 11.7043C306.837 12.4062 307 13.1791 307 14H315C315 12.1091 314.623 10.2962 313.936 8.63991L306.546 11.7043ZM307 14V16.5H315V14H307ZM307 21.5V24H315V21.5H307ZM307 24C307 24.8209 306.837 25.5938 306.546 26.2957L313.936 29.3601C314.623 27.7038 315 25.8909 315 24H307ZM303.296 29.5463C302.594 29.8374 301.821 30 301 30V38C302.891 38 304.704 37.6229 306.36 36.9361L303.296 29.5463ZM301 30H297.014V38H301V30ZM289.042 30H281.069V38H289.042V30ZM273.097 30H265.125V38H273.097V30ZM257.153 30H249.181V38H257.153V30ZM241.208 30H233.236V38H241.208V30ZM225.264 30H217.292V38H225.264V30ZM209.319 30H201.347V38H209.319V30ZM193.375 30H185.403V38H193.375V30ZM177.431 30H169.458V38H177.431V30ZM161.486 30H153.514V38H161.486V30ZM145.542 30H137.569V38H145.542V30ZM129.597 30H121.625V38H129.597V30ZM113.653 30H105.681V38H113.653V30ZM97.7083 30H89.7361V38H97.7083V30ZM81.7638 30H73.7916V38H81.7638V30ZM65.8194 30H57.8471V38H65.8194V30ZM49.8749 30H41.9027V38H49.8749V30ZM33.9304 30H25.9582V38H33.9304V30ZM17.986 30H14V38H17.986V30Z" fill="#2C2A55" mask="url(#path-1-outside-1_11_790)"/>
</svg>
