<svg width="76" height="93" viewBox="0 0 76 93" fill="none" xmlns="http://www.w3.org/2000/svg">
<mask id="path-1-outside-1_11_109" maskUnits="userSpaceOnUse" x="0" y="-1" width="76" height="94" fill="black">
<rect fill="white" y="-1" width="76" height="94"/>
<path fill-rule="evenodd" clip-rule="evenodd" d="M65.8997 15.6345C65.8766 14.7265 65.8559 13.9129 65.8559 13.2289C65.8559 4.9523 54.5472 4.9747 40.1107 5.00329C39.2522 5.00499 38.3826 5.00672 37.5036 5.00672C36.6247 5.00672 35.7551 5.00499 34.8966 5.00329C20.4601 4.9747 9.15137 4.9523 9.15137 13.2289C9.15137 14.0343 9.11548 15.0004 9.07558 16.0747C8.98729 18.4518 8.87931 21.3589 9.09675 24.2291C6.61291 26.0486 5 28.9867 5 32.3016V77.5118C5 83.0347 9.47716 87.5118 15 87.5118H60.2102C65.7331 87.5118 70.2102 83.0347 70.2102 77.5118V32.3016C70.2102 28.8522 68.4637 25.8106 65.8067 24.0131C66.0361 20.9959 65.9598 17.9961 65.8997 15.6345Z"/>
</mask>
<path fill-rule="evenodd" clip-rule="evenodd" d="M65.8997 15.6345C65.8766 14.7265 65.8559 13.9129 65.8559 13.2289C65.8559 4.9523 54.5472 4.9747 40.1107 5.00329C39.2522 5.00499 38.3826 5.00672 37.5036 5.00672C36.6247 5.00672 35.7551 5.00499 34.8966 5.00329C20.4601 4.9747 9.15137 4.9523 9.15137 13.2289C9.15137 14.0343 9.11548 15.0004 9.07558 16.0747C8.98729 18.4518 8.87931 21.3589 9.09675 24.2291C6.61291 26.0486 5 28.9867 5 32.3016V77.5118C5 83.0347 9.47716 87.5118 15 87.5118H60.2102C65.7331 87.5118 70.2102 83.0347 70.2102 77.5118V32.3016C70.2102 28.8522 68.4637 25.8106 65.8067 24.0131C66.0361 20.9959 65.9598 17.9961 65.8997 15.6345Z" fill="#CC4A51"/>
<path d="M65.8997 15.6345L70.8981 15.5073L70.8981 15.5073L65.8997 15.6345ZM40.1107 5.00329L40.1008 0.00330433L40.1107 5.00329ZM34.8966 5.00329L34.8866 10.0033L34.8966 5.00329ZM9.07558 16.0747L4.07903 15.8891L4.07903 15.8891L9.07558 16.0747ZM9.09675 24.2291L12.0514 28.2627L14.2923 26.6212L14.0825 23.8514L9.09675 24.2291ZM65.8067 24.0131L60.8211 23.634L60.601 26.528L63.005 28.1544L65.8067 24.0131ZM60.8559 13.2289C60.8559 13.99 60.8788 14.8741 60.9013 15.7616L70.8981 15.5073C70.8745 14.5789 70.8559 13.8357 70.8559 13.2289H60.8559ZM40.1206 10.0033C47.5693 9.98853 53.3507 10.0055 57.3162 10.8834C59.2572 11.3131 60.1508 11.8323 60.5119 12.1584C60.6678 12.2992 60.8559 12.4621 60.8559 13.2289H70.8559C70.8559 9.85736 69.6304 6.91932 67.2148 4.73743C65.0044 2.74088 62.1686 1.71555 59.4778 1.11985C54.1798 -0.0530358 47.0886 -0.0105354 40.1008 0.00330433L40.1206 10.0033ZM37.5036 10.0067C38.3883 10.0067 39.2629 10.005 40.1206 10.0033L40.1008 0.00330433C39.2415 0.00500624 38.3768 0.00671721 37.5036 0.00671721V10.0067ZM34.8866 10.0033C35.7444 10.005 36.6189 10.0067 37.5036 10.0067V0.00671721C36.6305 0.00671721 35.7658 0.00500624 34.9065 0.00330433L34.8866 10.0033ZM14.1514 13.2289C14.1514 12.4621 14.3395 12.2992 14.4954 12.1584C14.8565 11.8323 15.7501 11.3131 17.691 10.8834C21.6566 10.0055 27.4379 9.98853 34.8866 10.0033L34.9065 0.00330433C27.9187 -0.0105354 20.8275 -0.0530359 15.5295 1.11985C12.8387 1.71555 10.0029 2.74088 7.79246 4.73744C5.37683 6.91932 4.15137 9.85736 4.15137 13.2289H14.1514ZM14.0721 16.2603C14.1109 15.2162 14.1514 14.147 14.1514 13.2289H4.15137C4.15137 13.9216 4.12005 14.7845 4.07903 15.8891L14.0721 16.2603ZM14.0825 23.8514C13.8896 21.3057 13.9825 18.6737 14.0721 16.2603L4.07903 15.8891C3.99209 18.2299 3.86902 21.4121 4.11104 24.6068L14.0825 23.8514ZM10 32.3016C10 30.6478 10.7979 29.181 12.0514 28.2627L6.14206 20.1955C2.42793 22.9162 0 27.3257 0 32.3016H10ZM10 77.5118V32.3016H0V77.5118H10ZM15 82.5118C12.2386 82.5118 10 80.2733 10 77.5118H0C0 85.7961 6.71574 92.5118 15 92.5118V82.5118ZM60.2102 82.5118H15V92.5118H60.2102V82.5118ZM65.2102 77.5118C65.2102 80.2733 62.9717 82.5118 60.2102 82.5118V92.5118C68.4945 92.5118 75.2102 85.7961 75.2102 77.5118H65.2102ZM65.2102 32.3016V77.5118H75.2102V32.3016H65.2102ZM63.005 28.1544C64.346 29.0616 65.2102 30.5815 65.2102 32.3016H75.2102C75.2102 27.1228 72.5814 22.5596 68.6084 19.8718L63.005 28.1544ZM60.9013 15.7616C60.9621 18.15 61.0285 20.9063 60.8211 23.634L70.7923 24.3922C71.0438 21.0855 70.9575 17.8421 70.8981 15.5073L60.9013 15.7616Z" fill="#7C1D10" mask="url(#path-1-outside-1_11_109)"/>
</svg>
