<svg width="90" height="27" viewBox="0 0 90 27" fill="none" xmlns="http://www.w3.org/2000/svg">
<mask id="mask0_17_799" style="mask-type:alpha" maskUnits="userSpaceOnUse" x="0" y="0" width="27" height="27">
<g clip-path="url(#clip0_17_799)">
<path d="M13.4887 2.25C7.27875 2.25 2.25 7.29 2.25 13.5C2.25 19.71 7.27875 24.75 13.4887 24.75C19.71 24.75 24.75 19.71 24.75 13.5C24.75 7.29 19.71 2.25 13.4887 2.25ZM13.5 22.5C8.5275 22.5 4.5 18.4725 4.5 13.5C4.5 8.5275 8.5275 4.5 13.5 4.5C18.4725 4.5 22.5 8.5275 22.5 13.5C22.5 18.4725 18.4725 22.5 13.5 22.5Z" fill="black"/>
<path d="M14.0625 7.875H12.375V14.625L18.2812 18.1687L19.125 16.785L14.0625 13.7812V7.875Z" fill="black"/>
</g>
</mask>
<g mask="url(#mask0_17_799)">
<rect x="-9" y="-2" width="53" height="35" fill="#FE8C8C" fill-opacity="0.8"/>
</g>
<path d="M48.432 7.49V9.164H45.102V20H43.05V9.164H39.702V7.49H48.432ZM53.3542 8.768C52.9822 8.768 52.6702 8.642 52.4182 8.39C52.1662 8.138 52.0402 7.826 52.0402 7.454C52.0402 7.082 52.1662 6.77 52.4182 6.518C52.6702 6.266 52.9822 6.14 53.3542 6.14C53.7142 6.14 54.0202 6.266 54.2722 6.518C54.5242 6.77 54.6502 7.082 54.6502 7.454C54.6502 7.826 54.5242 8.138 54.2722 8.39C54.0202 8.642 53.7142 8.768 53.3542 8.768ZM54.3622 10.082V20H52.3102V10.082H54.3622ZM70.8623 9.92C71.6423 9.92 72.3383 10.082 72.9503 10.406C73.5743 10.73 74.0603 11.21 74.4083 11.846C74.7683 12.482 74.9483 13.25 74.9483 14.15V20H72.9143V14.456C72.9143 13.568 72.6923 12.89 72.2483 12.422C71.8043 11.942 71.1983 11.702 70.4303 11.702C69.6623 11.702 69.0503 11.942 68.5943 12.422C68.1503 12.89 67.9283 13.568 67.9283 14.456V20H65.8943V14.456C65.8943 13.568 65.6723 12.89 65.2283 12.422C64.7843 11.942 64.1783 11.702 63.4103 11.702C62.6423 11.702 62.0303 11.942 61.5743 12.422C61.1303 12.89 60.9083 13.568 60.9083 14.456V20H58.8563V10.082H60.9083V11.216C61.2443 10.808 61.6703 10.49 62.1863 10.262C62.7023 10.034 63.2543 9.92 63.8423 9.92C64.6343 9.92 65.3423 10.088 65.9663 10.424C66.5903 10.76 67.0703 11.246 67.4063 11.882C67.7063 11.282 68.1743 10.808 68.8103 10.46C69.4463 10.1 70.1303 9.92 70.8623 9.92ZM88.4494 14.798C88.4494 15.17 88.4254 15.506 88.3774 15.806H80.7994C80.8594 16.598 81.1534 17.234 81.6814 17.714C82.2094 18.194 82.8574 18.434 83.6254 18.434C84.7294 18.434 85.5094 17.972 85.9654 17.048H88.1794C87.8794 17.96 87.3334 18.71 86.5414 19.298C85.7614 19.874 84.7894 20.162 83.6254 20.162C82.6774 20.162 81.8254 19.952 81.0694 19.532C80.3254 19.1 79.7374 18.5 79.3054 17.732C78.8854 16.952 78.6754 16.052 78.6754 15.032C78.6754 14.012 78.8794 13.118 79.2874 12.35C79.7074 11.57 80.2894 10.97 81.0334 10.55C81.7894 10.13 82.6534 9.92 83.6254 9.92C84.5614 9.92 85.3954 10.124 86.1274 10.532C86.8594 10.94 87.4294 11.516 87.8374 12.26C88.2454 12.992 88.4494 13.838 88.4494 14.798ZM86.3074 14.15C86.2954 13.394 86.0254 12.788 85.4974 12.332C84.9694 11.876 84.3154 11.648 83.5354 11.648C82.8274 11.648 82.2214 11.876 81.7174 12.332C81.2134 12.776 80.9134 13.382 80.8174 14.15H86.3074Z" fill="#FE8C8C" fill-opacity="0.8"/>
<defs>
<clipPath id="clip0_17_799">
<rect width="27" height="27" fill="white"/>
</clipPath>
</defs>
</svg>
